<svg xmlns="http://www.w3.org/2000/svg" width="90" height="58" fill="none" viewBox="0 0 91 60"><path fill="#C10023" d="M20.276 59.08q-5.92 0-11.44-1.68-5.44-1.68-8.8-4.64l3.92-9.28q3.6 2.64 7.6 4a26.9 26.9 0 0 0 8.24 1.28q4.959 0 7.44-1.84 2.48-1.84 2.48-5.44 0-3.36-2.4-5.04-2.32-1.76-6.96-1.76h-9.44v-9.84h8.32q4 0 6.4-1.84 2.4-1.92 2.4-5.2 0-3.2-2.24-4.88t-6.48-1.68q-8.08 0-14.4 5.36l-4-9.12q3.6-3.12 8.72-4.8 5.2-1.76 10.88-1.76 9.12 0 14.24 4.08 5.2 4 5.2 11.2 0 4.96-2.8 8.56-2.8 3.52-7.68 4.72v-1.04q5.76.96 8.96 4.72t3.2 9.44q0 7.68-5.76 12.08-5.68 4.4-15.6 4.4M69.444 59.08q-3.759 0-7.44-.8-3.68-.8-6.88-2.16-3.2-1.44-5.36-3.36l3.92-9.28q3.6 2.56 7.52 3.92t8 1.36q4.641 0 7.2-2.16 2.64-2.24 2.64-6.08t-2.48-6.16-6.8-2.32q-3.04 0-5.68 1.12-2.56 1.12-4.64 3.44h-8V1.8h36v10.16h-24.24v15.28h-2.88q2.001-2.48 5.28-3.84t7.36-1.36q5.44 0 9.44 2.32 4.08 2.24 6.32 6.32 2.24 4 2.24 9.44 0 5.6-2.64 9.92-2.559 4.24-7.44 6.64-4.8 2.4-11.44 2.4"/></svg>