<svg xmlns="http://www.w3.org/2000/svg" width="480" height="45" fill="none"><path fill="#fff" fill-opacity=".3" d="M0 0h480v45H0z"/><path fill="#C10023" d="M46 22.573a.74.74 0 0 0-.206-.47.77.77 0 0 0-.469-.23l-1.849-.292a.4.4 0 0 1-.218-.111.38.38 0 0 1-.107-.217 10 10 0 0 0-.122-.67.38.38 0 0 1 .19-.412l1.642-.89a.74.74 0 0 0 .357-.385.7.7 0 0 0 .004-.518l-.285-.767a.73.73 0 0 0-.348-.393.76.76 0 0 0-.527-.066l-1.842.352a.4.4 0 0 1-.243-.032.4.4 0 0 1-.177-.166 13 13 0 0 0-.346-.592.39.39 0 0 1 .032-.457l1.226-1.383a.724.724 0 0 0 .028-.968l-.535-.627a.753.753 0 0 0-.98-.14l-1.613.944a.4.4 0 0 1-.46-.044 19 19 0 0 0-.532-.436.375.375 0 0 1-.124-.437l.667-1.717a.7.7 0 0 0 .024-.518.73.73 0 0 0-.334-.402l-.728-.414a.76.76 0 0 0-.97.199l-1.179 1.445a.34.34 0 0 1-.404.121 14 14 0 0 0-.705-.26.4.4 0 0 1-.197-.14.38.38 0 0 1-.073-.228l.028-1.835a.73.73 0 0 0-.16-.496.76.76 0 0 0-.458-.27l-.825-.14a.77.77 0 0 0-.521.097.74.74 0 0 0-.327.407l-.613 1.746a.4.4 0 0 1-.15.19.4.4 0 0 1-.236.067h-.704a.4.4 0 0 1-.233-.069.4.4 0 0 1-.149-.189l-.61-1.736a.74.74 0 0 0-.325-.412.77.77 0 0 0-.524-.098l-.827.14a.76.76 0 0 0-.455.267.73.73 0 0 0-.162.493l.029 1.84a.38.38 0 0 1-.077.23.4.4 0 0 1-.202.14c-.165.063-.523.197-.686.256-.144.05-.302-.005-.428-.148l-1.173-1.408a.758.758 0 0 0-.97-.203l-.726.41a.73.73 0 0 0-.338.405.7.7 0 0 0 .026.522l.667 1.713a.38.38 0 0 1-.122.439c-.176.14-.355.281-.534.437a.39.39 0 0 1-.458.045l-1.594-.963a.765.765 0 0 0-.982.14l-.533.626a.715.715 0 0 0 .027.968l1.232 1.38a.376.376 0 0 1 .032.455c-.123.191-.24.392-.348.594a.407.407 0 0 1-.423.198l-1.839-.347a.76.76 0 0 0-.527.066.73.73 0 0 0-.348.392l-.289.766a.71.71 0 0 0 .005.52.74.74 0 0 0 .356.384l1.643.89c.074.04.132.103.167.178a.37.37 0 0 1 .024.24l-.018.089c-.037.196-.072.382-.105.58a.4.4 0 0 1-.106.214.4.4 0 0 1-.216.112l-1.852.292a.76.76 0 0 0-.47.24.72.72 0 0 0-.19.483v.815a.7.7 0 0 0 .188.485c.122.134.29.218.473.237l1.851.291c.084.014.16.053.219.112s.096.136.106.217c.035.223.072.452.123.67a.4.4 0 0 1-.028.236.4.4 0 0 1-.162.176l-1.642.892a.74.74 0 0 0-.357.384.7.7 0 0 0-.004.518l.289.768a.73.73 0 0 0 .348.392.76.76 0 0 0 .526.066l1.843-.349a.4.4 0 0 1 .243.033.4.4 0 0 1 .177.165q.163.297.346.593a.39.39 0 0 1-.032.457l-1.226 1.382a.724.724 0 0 0-.036.969l.535.627a.752.752 0 0 0 .98.14l1.612-.945a.4.4 0 0 1 .46.045c.18.152.361.3.532.435q.1.078.136.2a.38.38 0 0 1-.01.237l-.67 1.718a.7.7 0 0 0-.023.517c.057.17.176.313.334.402l.73.412a.76.76 0 0 0 .97-.199l1.193-1.432c.101-.122.26-.176.377-.13.251.102.42.159.717.256.08.025.148.075.197.14a.38.38 0 0 1 .073.228l-.028 1.833c-.01.18.047.356.16.497a.76.76 0 0 0 .458.269l.825.14c.18.031.366-.003.521-.096a.74.74 0 0 0 .327-.408l.613-1.743a.4.4 0 0 1 .15-.19.4.4 0 0 1 .236-.067h.703a.4.4 0 0 1 .234.069c.07.046.12.112.149.19l.61 1.735c.048.151.143.283.273.377a.77.77 0 0 0 .577.134l.827-.141a.76.76 0 0 0 .455-.267.72.72 0 0 0 .162-.492l-.029-1.841q0-.125.075-.227a.4.4 0 0 1 .196-.14c.277-.09.472-.163.643-.228l.043-.016c.223-.076.332.016.394.092l1.208 1.452a.759.759 0 0 0 .97.198l.726-.41a.73.73 0 0 0 .335-.403.7.7 0 0 0-.025-.519l-.666-1.713a.38.38 0 0 1 .122-.439c.175-.14.355-.281.534-.437a.39.39 0 0 1 .46-.044l1.614.943a.764.764 0 0 0 .982-.14l.533-.627a.715.715 0 0 0-.026-.968l-1.23-1.384a.376.376 0 0 1-.033-.454c.123-.19.241-.392.348-.594a.409.409 0 0 1 .423-.198l1.837.35a.76.76 0 0 0 .527-.067.73.73 0 0 0 .348-.392l.285-.765a.71.71 0 0 0-.004-.52.74.74 0 0 0-.356-.384l-1.645-.892a.4.4 0 0 1-.164-.177.37.37 0 0 1-.024-.237l.017-.09c.038-.196.072-.382.106-.58a.4.4 0 0 1 .106-.214.4.4 0 0 1 .215-.112l1.853-.291a.76.76 0 0 0 .47-.24.72.72 0 0 0 .192-.484zm-20.369 6.615c-.09.153-.215.282-.367.378a1.16 1.16 0 0 1-1.47-.19 9.38 9.38 0 0 1-2.516-6.398 9.38 9.38 0 0 1 2.547-6.387c.12-.13.271-.232.44-.295a1.17 1.17 0 0 1 1.033.11c.151.097.276.227.366.38l3.291 5.655a1.1 1.1 0 0 1 0 1.108zM31 32.508c-.686.001-1.37-.07-2.042-.21a1.15 1.15 0 0 1-.476-.227 1.1 1.1 0 0 1-.32-.413 1.09 1.09 0 0 1 .059-1.004l3.317-5.63c.1-.17.244-.311.417-.41.174-.097.37-.149.571-.149h6.645c.179 0 .355.041.515.12s.298.193.404.334a1.1 1.1 0 0 1 .17.991c-1.262 3.823-4.933 6.599-9.26 6.599m.542-11.534-3.282-5.64a1.094 1.094 0 0 1 .267-1.415c.138-.11.301-.187.476-.225A10 10 0 0 1 31 13.491c4.327 0 7.998 2.776 9.258 6.601a1.09 1.09 0 0 1-.17.992c-.106.14-.244.255-.404.334-.16.078-.337.12-.515.119h-6.635c-.202 0-.4-.052-.574-.15a1.1 1.1 0 0 1-.418-.413"/><path fill="#fff" d="m59.932 29-4.446-12.69h1.908l3.402 9.99 3.492-9.99h1.422l3.456 10.098L72.64 16.31h1.818L69.976 29H68.41l-3.438-9.864L61.498 29zm19.312.162q-2.16 0-3.402-1.206-1.242-1.224-1.242-3.33 0-1.35.54-2.376a4.07 4.07 0 0 1 1.53-1.62q.972-.576 2.232-.576 1.818 0 2.862 1.17 1.044 1.152 1.044 3.186v.612h-6.444q.198 2.736 2.898 2.736.756 0 1.476-.234a4.1 4.1 0 0 0 1.386-.774l.54 1.26q-.594.54-1.53.846a6 6 0 0 1-1.89.306m-.27-7.83q-1.134 0-1.8.702t-.81 1.872h4.914q-.054-1.224-.648-1.89-.594-.684-1.656-.684M89.716 29V16.31h5.256q2.052 0 3.168 1.026 1.116 1.008 1.116 2.844 0 1.854-1.116 2.88-1.116 1.008-3.168 1.008h-3.384V29zm1.872-6.426h3.114q2.736 0 2.736-2.394 0-2.376-2.736-2.376h-3.114zM100.891 29v-8.784h1.764v1.566q.684-1.566 2.844-1.746l.594-.036.126 1.548-1.098.108q-2.394.234-2.394 2.466V29zm10.408.162q-1.332 0-2.304-.558a3.9 3.9 0 0 1-1.512-1.566q-.522-1.026-.522-2.43t.522-2.412a3.85 3.85 0 0 1 1.512-1.584q.972-.558 2.304-.558 1.296 0 2.268.558t1.512 1.584q.54 1.008.54 2.412t-.54 2.43a3.9 3.9 0 0 1-1.512 1.566q-.972.558-2.268.558m0-1.404q1.116 0 1.8-.81t.684-2.34-.684-2.322q-.684-.81-1.8-.81-1.134 0-1.818.81-.684.792-.684 2.322t.684 2.34 1.818.81M120.077 29l-3.78-8.784h1.962l2.682 6.678 2.754-6.678h1.854L121.715 29zm6.615-10.818v-1.89h2.124v1.89zM126.854 29v-8.784h1.818V29zm7.725.162q-1.152 0-2.034-.54-.864-.558-1.35-1.584t-.486-2.43.486-2.412q.486-1.026 1.35-1.584t2.034-.558q.99 0 1.764.432t1.152 1.17V16.31h1.818V29h-1.782v-1.53a2.8 2.8 0 0 1-1.17 1.242q-.774.45-1.782.45m.468-1.404q1.116 0 1.8-.81t.684-2.34-.684-2.322q-.684-.81-1.8-.81-1.134 0-1.818.81-.684.792-.684 2.322t.684 2.34 1.818.81m10.941 1.404q-2.16 0-3.402-1.206-1.242-1.224-1.242-3.33 0-1.35.54-2.376a4.07 4.07 0 0 1 1.53-1.62q.972-.576 2.232-.576 1.818 0 2.862 1.17 1.044 1.152 1.044 3.186v.612h-6.444q.198 2.736 2.898 2.736.756 0 1.476-.234a4.1 4.1 0 0 0 1.386-.774l.54 1.26q-.594.54-1.53.846a6 6 0 0 1-1.89.306m-.27-7.83q-1.134 0-1.8.702t-.81 1.872h4.914q-.054-1.224-.648-1.89-.594-.684-1.656-.684M156.46 29V16.31h8.208v1.512h-6.408V21.8h6.03v1.512h-6.03v4.176h6.408V29zm13.264.162q-1.44 0-2.16-.81-.702-.81-.702-2.376V16.31h1.818v9.558q0 1.782 1.458 1.782a4 4 0 0 0 .396-.018q.198-.018.396-.072l-.036 1.458a5 5 0 0 1-1.17.144m6.674 0q-2.16 0-3.402-1.206-1.242-1.224-1.242-3.33 0-1.35.54-2.376a4.07 4.07 0 0 1 1.53-1.62q.972-.576 2.232-.576 1.818 0 2.862 1.17 1.044 1.152 1.044 3.186v.612h-6.444q.198 2.736 2.898 2.736.756 0 1.476-.234a4.1 4.1 0 0 0 1.386-.774l.54 1.26q-.594.54-1.53.846a6 6 0 0 1-1.89.306m-.27-7.83q-1.134 0-1.8.702t-.81 1.872h4.914q-.054-1.224-.648-1.89-.594-.684-1.656-.684m9.686 7.83q-1.35 0-2.34-.558a3.97 3.97 0 0 1-1.512-1.602q-.54-1.044-.54-2.448 0-2.088 1.188-3.294t3.204-1.206q.828 0 1.638.288t1.332.792l-.576 1.278a3.2 3.2 0 0 0-1.116-.684 3.1 3.1 0 0 0-1.134-.234q-1.278 0-1.98.81-.684.792-.684 2.268t.684 2.322q.702.828 1.98.828a3.32 3.32 0 0 0 2.25-.918l.576 1.296q-.522.486-1.35.774-.81.288-1.62.288m8.294 0q-1.656 0-2.466-.846t-.81-2.448V21.62h-1.71v-1.404h1.71V17.57h1.818v2.646h2.718v1.404h-2.718v4.104q0 .954.396 1.44.414.486 1.332.486.288 0 .558-.054.27-.072.54-.162l.288 1.368q-.27.162-.756.252a4 4 0 0 1-.9.108m2.83-.162v-8.784h1.764v1.566q.684-1.566 2.844-1.746l.594-.036.126 1.548-1.098.108q-2.394.234-2.394 2.466V29zm6.553-10.818v-1.89h2.124v1.89zM203.653 29v-8.784h1.818V29zm8.247.162q-1.35 0-2.34-.558a3.97 3.97 0 0 1-1.512-1.602q-.54-1.044-.54-2.448 0-2.088 1.188-3.294t3.204-1.206q.828 0 1.638.288t1.332.792l-.576 1.278a3.2 3.2 0 0 0-1.116-.684 3.1 3.1 0 0 0-1.134-.234q-1.278 0-1.98.81-.684.792-.684 2.268t.684 2.322q.702.828 1.98.828a3.32 3.32 0 0 0 2.25-.918l.576 1.296q-.522.486-1.35.774-.81.288-1.62.288m13.689 0q-1.494 0-2.736-.378-1.242-.396-2.106-1.098l.594-1.476q.9.684 1.926 1.026t2.322.342q1.53 0 2.25-.54.738-.558.738-1.44 0-.72-.522-1.134-.522-.432-1.746-.684l-1.926-.396q-1.71-.36-2.556-1.188-.828-.828-.828-2.232 0-1.134.594-1.998.612-.864 1.692-1.332 1.08-.486 2.484-.486 1.296 0 2.394.396 1.116.378 1.89 1.116l-.612 1.422q-1.53-1.35-3.69-1.35-1.332 0-2.124.594-.774.594-.774 1.584 0 .756.486 1.206t1.62.684l1.908.396q1.8.378 2.682 1.17.882.774.882 2.106 0 1.116-.594 1.944t-1.674 1.296q-1.08.45-2.574.45m10.891 0q-2.16 0-3.402-1.206-1.242-1.224-1.242-3.33 0-1.35.54-2.376a4.07 4.07 0 0 1 1.53-1.62q.972-.576 2.232-.576 1.818 0 2.862 1.17 1.044 1.152 1.044 3.186v.612H233.6q.198 2.736 2.898 2.736.756 0 1.476-.234a4.1 4.1 0 0 0 1.386-.774l.54 1.26q-.594.54-1.53.846a6 6 0 0 1-1.89.306m-.27-7.83q-1.134 0-1.8.702t-.81 1.872h4.914q-.054-1.224-.648-1.89-.594-.684-1.656-.684M242.026 29v-8.784h1.764v1.566q.684-1.566 2.844-1.746l.594-.036.126 1.548-1.098.108q-2.394.234-2.394 2.466V29zm9.834 0-3.78-8.784h1.962l2.682 6.678 2.754-6.678h1.854L253.498 29zm6.615-10.818v-1.89h2.124v1.89zM258.637 29v-8.784h1.818V29zm8.247.162q-1.35 0-2.34-.558a3.97 3.97 0 0 1-1.512-1.602q-.54-1.044-.54-2.448 0-2.088 1.188-3.294t3.204-1.206q.828 0 1.638.288t1.332.792l-.576 1.278a3.2 3.2 0 0 0-1.116-.684 3.1 3.1 0 0 0-1.134-.234q-1.278 0-1.98.81-.684.792-.684 2.268t.684 2.322q.702.828 1.98.828a3.32 3.32 0 0 0 2.25-.918l.576 1.296q-.522.486-1.35.774-.81.288-1.62.288m8.479 0q-2.16 0-3.402-1.206-1.242-1.224-1.242-3.33 0-1.35.54-2.376a4.07 4.07 0 0 1 1.53-1.62q.972-.576 2.232-.576 1.818 0 2.862 1.17 1.044 1.152 1.044 3.186v.612h-6.444q.198 2.736 2.898 2.736.756 0 1.476-.234a4.1 4.1 0 0 0 1.386-.774l.54 1.26q-.594.54-1.53.846a6 6 0 0 1-1.89.306m-.27-7.83q-1.134 0-1.8.702t-.81 1.872h4.914q-.054-1.224-.648-1.89-.594-.684-1.656-.684m8.894 7.83q-1.08 0-2.016-.27-.936-.288-1.566-.792l.522-1.224q.666.468 1.458.72.81.252 1.62.252.954 0 1.44-.342t.486-.918q0-.468-.324-.72-.324-.27-.972-.414l-1.71-.342q-2.268-.468-2.268-2.34 0-1.242.99-1.98t2.592-.738q.918 0 1.746.27.846.27 1.404.81l-.522 1.224a3.9 3.9 0 0 0-1.242-.72 4.1 4.1 0 0 0-1.386-.252q-.936 0-1.422.36-.486.342-.486.936 0 .9 1.188 1.152l1.71.342q1.17.234 1.764.792.612.558.612 1.512 0 1.26-.99 1.98-.99.702-2.628.702M294.554 29V16.31h8.064v1.512h-6.192v4.05h5.814v1.512h-5.814V29zm13.251.162q-1.332 0-2.304-.558a3.9 3.9 0 0 1-1.512-1.566q-.522-1.026-.522-2.43t.522-2.412a3.85 3.85 0 0 1 1.512-1.584q.972-.558 2.304-.558 1.296 0 2.268.558t1.512 1.584q.54 1.008.54 2.412t-.54 2.43a3.9 3.9 0 0 1-1.512 1.566q-.972.558-2.268.558m0-1.404q1.116 0 1.8-.81t.684-2.34-.684-2.322q-.684-.81-1.8-.81-1.134 0-1.818.81-.684.792-.684 2.322t.684 2.34 1.818.81M314.167 29v-8.784h1.764v1.566q.684-1.566 2.844-1.746l.594-.036.126 1.548-1.098.108q-2.394.234-2.394 2.466V29zm11.641 0V16.31h1.872V29zm4.601 0v-8.784h1.764v1.458q.45-.792 1.224-1.206a3.75 3.75 0 0 1 1.764-.414q3.114 0 3.114 3.528V29h-1.818v-5.31q0-1.134-.45-1.656-.432-.522-1.368-.522-1.098 0-1.764.702-.648.684-.648 1.818V29zm13.719.162q-1.152 0-2.034-.54-.864-.558-1.35-1.584t-.486-2.43.486-2.412q.486-1.026 1.35-1.584t2.034-.558q.99 0 1.764.432t1.152 1.17V16.31h1.818V29h-1.782v-1.53a2.8 2.8 0 0 1-1.17 1.242q-.774.45-1.782.45m.468-1.404q1.116 0 1.8-.81t.684-2.34-.684-2.322q-.684-.81-1.8-.81-1.134 0-1.818.81-.684.792-.684 2.322t.684 2.34 1.818.81m9.951 1.404q-3.186 0-3.186-3.546v-5.4h1.818v5.418q0 1.062.432 1.566t1.368.504q1.026 0 1.656-.684.648-.684.648-1.836v-4.968h1.818V29h-1.764v-1.404a2.9 2.9 0 0 1-1.152 1.17q-.72.396-1.638.396m10.194 0q-1.08 0-2.016-.27-.936-.288-1.566-.792l.522-1.224q.666.468 1.458.72.81.252 1.62.252.954 0 1.44-.342t.486-.918q0-.468-.324-.72-.324-.27-.972-.414l-1.71-.342q-2.268-.468-2.268-2.34 0-1.242.99-1.98t2.592-.738q.918 0 1.746.27.846.27 1.404.81l-.522 1.224a3.9 3.9 0 0 0-1.242-.72 4.1 4.1 0 0 0-1.386-.252q-.936 0-1.422.36-.486.342-.486.936 0 .9 1.188 1.152l1.71.342q1.17.234 1.764.792.612.558.612 1.512 0 1.26-.99 1.98-.99.702-2.628.702m9.297 0q-1.656 0-2.466-.846t-.81-2.448V21.62h-1.71v-1.404h1.71V17.57h1.818v2.646h2.718v1.404h-2.718v4.104q0 .954.396 1.44.414.486 1.332.486.288 0 .558-.054.27-.072.54-.162l.288 1.368q-.27.162-.756.252a4 4 0 0 1-.9.108m2.83-.162v-8.784h1.764v1.566q.684-1.566 2.844-1.746l.594-.036.126 1.548-1.098.108q-2.394.234-2.394 2.466V29zm6.553-10.818v-1.89h2.124v1.89zM383.583 29v-8.784h1.818V29zm7.185.162q-.918 0-1.638-.36a3.05 3.05 0 0 1-1.152-.972 2.4 2.4 0 0 1-.414-1.386q0-.972.486-1.53.504-.558 1.638-.81 1.152-.252 3.096-.252h.612v-.468q0-1.026-.432-1.476t-1.422-.45a5.1 5.1 0 0 0-1.512.234 6.3 6.3 0 0 0-1.548.702l-.558-1.278q.684-.486 1.71-.774a7.3 7.3 0 0 1 1.962-.288q1.8 0 2.664.864.864.846.864 2.664V29h-1.71v-1.458q-.324.756-1.008 1.188t-1.638.432m.36-1.296q.972 0 1.62-.684t.648-1.728v-.486h-.594q-1.314 0-2.07.126-.738.126-1.062.432-.306.288-.306.81 0 .684.468 1.116.468.414 1.296.414m9.362 1.296q-1.44 0-2.16-.81-.702-.81-.702-2.376V16.31h1.818v9.558q0 1.782 1.458 1.782a4 4 0 0 0 .396-.018q.198-.018.396-.072l-.036 1.458a5 5 0 0 1-1.17.144m7.566-.162V16.31h5.256q2.052 0 3.168 1.026 1.116 1.008 1.116 2.844 0 1.854-1.116 2.88-1.116 1.008-3.168 1.008h-3.384V29zm1.872-6.426h3.114q2.736 0 2.736-2.394 0-2.376-2.736-2.376h-3.114zM419.231 29v-8.784h1.764v1.566q.684-1.566 2.844-1.746l.594-.036.126 1.548-1.098.108q-2.394.234-2.394 2.466V29zm10.408.162q-1.332 0-2.304-.558a3.9 3.9 0 0 1-1.512-1.566q-.522-1.026-.522-2.43t.522-2.412a3.85 3.85 0 0 1 1.512-1.584q.972-.558 2.304-.558 1.296 0 2.268.558t1.512 1.584q.54 1.008.54 2.412t-.54 2.43a3.9 3.9 0 0 1-1.512 1.566q-.972.558-2.268.558m0-1.404q1.116 0 1.8-.81t.684-2.34-.684-2.322q-.684-.81-1.8-.81-1.134 0-1.818.81-.684.792-.684 2.322t.684 2.34 1.818.81m6.272-9.576v-1.89h2.124v1.89zm-2.052 14.292-.126-1.368.792-.072q1.53-.162 1.53-1.836v-8.982h1.818V29q0 1.656-.774 2.466-.756.828-2.466.954zm10.693-3.312q-2.16 0-3.402-1.206-1.242-1.224-1.242-3.33 0-1.35.54-2.376a4.07 4.07 0 0 1 1.53-1.62q.972-.576 2.232-.576 1.818 0 2.862 1.17 1.044 1.152 1.044 3.186v.612h-6.444q.198 2.736 2.898 2.736.756 0 1.476-.234a4.1 4.1 0 0 0 1.386-.774l.54 1.26q-.594.54-1.53.846a6 6 0 0 1-1.89.306m-.27-7.83q-1.134 0-1.8.702t-.81 1.872h4.914q-.054-1.224-.648-1.89-.594-.684-1.656-.684m9.686 7.83q-1.35 0-2.34-.558a3.97 3.97 0 0 1-1.512-1.602q-.54-1.044-.54-2.448 0-2.088 1.188-3.294t3.204-1.206q.828 0 1.638.288t1.332.792l-.576 1.278a3.2 3.2 0 0 0-1.116-.684 3.1 3.1 0 0 0-1.134-.234q-1.278 0-1.98.81-.684.792-.684 2.268t.684 2.322q.702.828 1.98.828a3.32 3.32 0 0 0 2.25-.918l.576 1.296q-.522.486-1.35.774-.81.288-1.62.288m8.294 0q-1.656 0-2.466-.846t-.81-2.448V21.62h-1.71v-1.404h1.71V17.57h1.818v2.646h2.718v1.404h-2.718v4.104q0 .954.396 1.44.414.486 1.332.486.288 0 .558-.054.27-.072.54-.162l.288 1.368q-.27.162-.756.252a4 4 0 0 1-.9.108"/></svg>