<svg width="480" height="45" viewBox="0 0 480 45" fill="none" xmlns="http://www.w3.org/2000/svg">
<rect width="480" height="45" fill="white" fill-opacity="0.3"/>
<path d="M46 22.5729C45.9903 22.3973 45.9172 22.2307 45.7936 22.1026C45.6701 21.9746 45.504 21.8934 45.325 21.8733L43.476 21.5813C43.3928 21.568 43.3163 21.5288 43.2578 21.4695C43.1993 21.4103 43.162 21.3342 43.1514 21.2526C43.1161 21.0309 43.0793 20.8008 43.0288 20.5826C43.0126 20.5033 43.0221 20.4209 43.0561 20.3471C43.0901 20.2733 43.1469 20.2117 43.2185 20.1709L44.8613 19.2806C45.0244 19.1995 45.1513 19.0627 45.2178 18.8962C45.2843 18.7297 45.2857 18.5452 45.2219 18.3777L44.937 17.6106C44.8745 17.4425 44.7508 17.3029 44.5894 17.2183C44.428 17.1338 44.2403 17.1103 44.0623 17.1524L42.2197 17.5043C42.1373 17.5187 42.0524 17.5073 41.977 17.4718C41.9017 17.4363 41.8397 17.3784 41.8 17.3065C41.6926 17.1102 41.5757 16.9103 41.4538 16.714C41.4096 16.644 41.3888 16.5623 41.3945 16.4803C41.4002 16.3982 41.4321 16.32 41.4856 16.2565L42.7115 14.8743C42.8361 14.7438 42.9076 14.5735 42.9128 14.3953C42.918 14.217 42.8564 14.043 42.7397 13.9059L42.2046 13.2788C42.0882 13.1412 41.9236 13.0506 41.7427 13.0246C41.5617 12.9986 41.3774 13.039 41.2252 13.1381L39.612 14.0832C39.5405 14.1251 39.4571 14.1433 39.3741 14.1353C39.2911 14.1274 39.213 14.0935 39.1512 14.0389C38.9731 13.8862 38.7906 13.7391 38.6197 13.6033C38.5541 13.5527 38.5067 13.4831 38.4844 13.4045C38.4621 13.326 38.4661 13.2425 38.4957 13.1662L39.1635 11.449C39.2362 11.2852 39.2447 11.1009 39.1874 10.9314C39.1301 10.7618 39.011 10.6187 38.8526 10.5292L38.125 10.1146C37.9666 10.0255 37.78 9.9965 37.601 10.0332C37.422 10.07 37.2632 10.1699 37.1551 10.3138L35.976 11.7594C35.9336 11.8222 35.87 11.8687 35.7963 11.8907C35.7226 11.9128 35.6434 11.9092 35.5721 11.8804C35.5281 11.8628 35.156 11.7143 34.8668 11.62C34.7875 11.5948 34.7185 11.5455 34.67 11.4792C34.6215 11.413 34.5959 11.3334 34.5971 11.2519L34.6252 9.4172C34.6353 9.23805 34.5781 9.06146 34.4643 8.92052C34.3505 8.77957 34.188 8.68392 34.0072 8.65149L33.1815 8.51074C33.0016 8.4804 32.8165 8.51484 32.6607 8.60765C32.5048 8.70046 32.3888 8.84534 32.3341 9.01534L31.7212 10.7614C31.6933 10.8389 31.6408 10.9057 31.5712 10.9519C31.5016 10.9982 31.4187 11.0214 31.3346 11.0183H30.6315C30.548 11.02 30.4662 10.9959 30.3975 10.9495C30.3289 10.9032 30.277 10.8368 30.2493 10.76L29.6392 9.02379C29.5855 8.85254 29.4697 8.70626 29.3135 8.61233C29.1572 8.51841 28.9713 8.48329 28.7904 8.51355L27.9632 8.65431C27.7836 8.68648 27.622 8.78119 27.5084 8.92085C27.3949 9.0605 27.3372 9.23562 27.3459 9.41368L27.3748 11.2548C27.3753 11.3374 27.3486 11.418 27.2984 11.4846C27.2482 11.5512 27.1774 11.6001 27.0964 11.6242C26.9313 11.6869 26.5728 11.8206 26.4099 11.8797C26.2656 11.9304 26.1084 11.8748 25.9815 11.7319L24.8089 10.3244C24.7013 10.1796 24.5427 10.0787 24.3635 10.0412C24.1843 10.0036 23.9972 10.032 23.8382 10.121L23.1128 10.5313C22.9527 10.6209 22.8323 10.7652 22.7748 10.9364C22.7172 11.1075 22.7267 11.2934 22.8012 11.4582L23.4683 13.1711C23.4974 13.2476 23.5012 13.331 23.4792 13.4096C23.4572 13.4883 23.4105 13.5582 23.3457 13.6096C23.1704 13.7504 22.9909 13.8911 22.812 14.0473C22.7506 14.1016 22.673 14.1352 22.5906 14.1433C22.5082 14.1514 22.4254 14.1336 22.3541 14.0924L20.7596 13.1289C20.6065 13.0317 20.4223 12.9924 20.2416 13.0183C20.0609 13.0442 19.8961 13.1336 19.7781 13.2697L19.2452 13.8953C19.1268 14.0316 19.0641 14.2056 19.069 14.3842C19.0739 14.5627 19.1462 14.7332 19.2719 14.863L20.5036 16.2438C20.5583 16.3061 20.591 16.3838 20.5968 16.4656C20.6026 16.5473 20.5813 16.6287 20.5361 16.6978C20.4128 16.8892 20.2952 17.0905 20.1885 17.2918C20.1485 17.3642 20.0861 17.4224 20.0102 17.458C19.9343 17.4937 19.8488 17.5049 19.7659 17.4902L17.9262 17.1433C17.7481 17.1013 17.5604 17.1248 17.3989 17.2093C17.2374 17.2939 17.1135 17.4334 17.0507 17.6014L16.7623 18.3671C16.6985 18.5348 16.7 18.7195 16.7665 18.8862C16.8329 19.0529 16.9597 19.19 17.1228 19.2715L18.7656 20.1618C18.8395 20.2015 18.8981 20.2637 18.9326 20.3389C18.9671 20.414 18.9755 20.4981 18.9567 20.5784L18.9394 20.6678C18.9019 20.8641 18.8673 21.0499 18.8341 21.2477C18.8227 21.3283 18.7854 21.4032 18.7276 21.4619C18.6699 21.5205 18.5946 21.5599 18.5125 21.5742L16.6599 21.8663C16.4787 21.888 16.3118 21.9733 16.1904 22.1063C16.0689 22.2394 16.0013 22.4109 16 22.5891V23.4041C15.999 23.5829 16.0659 23.7557 16.188 23.8891C16.31 24.0225 16.4784 24.107 16.6606 24.1261L18.5125 24.4175C18.5957 24.4307 18.6723 24.4699 18.7308 24.5291C18.7893 24.5884 18.8266 24.6645 18.837 24.7462C18.8724 24.9686 18.9091 25.198 18.9596 25.4162C18.9759 25.4955 18.9664 25.5778 18.9324 25.6516C18.8984 25.7255 18.8416 25.7871 18.77 25.8279L17.1279 26.7195C16.9648 26.8007 16.8379 26.9375 16.7714 27.104C16.7049 27.2705 16.7035 27.455 16.7673 27.6225L17.0558 28.3896C17.1184 28.5576 17.2422 28.6971 17.4036 28.7816C17.5649 28.8661 17.7525 28.8897 17.9305 28.8478L19.7731 28.4994C19.8555 28.4848 19.9405 28.4961 20.0159 28.5316C20.0913 28.5672 20.1533 28.6251 20.1928 28.6972C20.301 28.8942 20.4171 29.0934 20.539 29.2897C20.5834 29.3596 20.6043 29.4414 20.5986 29.5235C20.5929 29.6055 20.5609 29.6838 20.5072 29.7472L19.2813 31.1287C19.1553 31.2582 19.0821 31.4281 19.0754 31.6066C19.0688 31.7851 19.1292 31.9597 19.2452 32.0978L19.7796 32.7249C19.8959 32.8626 20.0605 32.9533 20.2415 32.9793C20.4224 33.0053 20.6068 32.9648 20.7589 32.8656L22.3721 31.9205C22.4436 31.8786 22.5271 31.8604 22.61 31.8684C22.693 31.8763 22.7712 31.9101 22.8329 31.9648C23.0118 32.1175 23.1935 32.2646 23.3644 32.4004C23.43 32.451 23.4774 32.5206 23.4998 32.5991C23.5222 32.6777 23.5185 32.7611 23.4892 32.8375L22.8207 34.5547C22.748 34.7185 22.7394 34.9028 22.7967 35.0723C22.854 35.2419 22.9732 35.385 23.1315 35.4745L23.8606 35.8855C24.0189 35.9748 24.2055 36.0039 24.3844 35.9672C24.5634 35.9306 24.7222 35.8309 24.8305 35.6871L26.024 34.2549C26.125 34.1331 26.2837 34.0789 26.4012 34.1254C26.6522 34.2267 26.8202 34.2837 27.118 34.3809C27.1974 34.4062 27.2664 34.4555 27.315 34.5217C27.3636 34.5879 27.3894 34.6675 27.3885 34.7489L27.3596 36.5823C27.3499 36.7614 27.4072 36.9378 27.5209 37.0787C27.6346 37.2196 27.797 37.3153 27.9777 37.348L28.8034 37.4887C28.9833 37.5194 29.1685 37.4851 29.3245 37.3922C29.4804 37.2994 29.5964 37.1543 29.6507 36.9841L30.2637 35.2409C30.2914 35.1633 30.344 35.0965 30.4136 35.0502C30.4832 35.004 30.5661 34.9808 30.6502 34.984H31.3534C31.4368 34.9822 31.5188 35.0062 31.5874 35.0526C31.6561 35.099 31.7079 35.1654 31.7356 35.2423L32.3464 36.9785C32.3937 37.1292 32.4893 37.2612 32.6191 37.355C32.7488 37.4489 32.906 37.4997 33.0676 37.5C33.1106 37.5001 33.1536 37.4963 33.1959 37.4887L34.0231 37.348C34.2028 37.3158 34.3644 37.2211 34.4779 37.0814C34.5914 36.9418 34.6492 36.7667 34.6404 36.5886L34.6115 34.7475C34.611 34.6664 34.6369 34.5872 34.6855 34.5214C34.7341 34.4556 34.8029 34.4067 34.882 34.3816C35.1589 34.2908 35.3536 34.2176 35.5245 34.1528L35.5678 34.1366C35.7914 34.0613 35.8995 34.1528 35.9623 34.2288L37.1702 35.6807C37.2785 35.8244 37.4372 35.924 37.616 35.9606C37.7948 35.9972 37.9811 35.9682 38.1394 35.8792L38.8656 35.4689C39.0245 35.3794 39.144 35.2359 39.2013 35.0658C39.2586 34.8957 39.2498 34.711 39.1764 34.547L38.5101 32.834C38.4807 32.7576 38.4766 32.6742 38.4985 32.5955C38.5204 32.5168 38.5671 32.4469 38.632 32.3955C38.8072 32.2548 38.9868 32.114 39.1656 31.9578C39.2274 31.9034 39.3055 31.8698 39.3883 31.8619C39.4711 31.8541 39.5543 31.8724 39.6257 31.9141L41.2404 32.8572C41.3934 32.9545 41.5777 32.9939 41.7584 32.968C41.9392 32.9421 42.104 32.8526 42.2219 32.7164L42.7555 32.0901C42.8739 31.9538 42.9366 31.7798 42.9317 31.6012C42.9268 31.4227 42.8546 31.2522 42.7288 31.1224L41.4986 29.738C41.4439 29.6758 41.4112 29.5981 41.4054 29.5163C41.3995 29.4346 41.4208 29.3531 41.4661 29.2841C41.5894 29.0934 41.707 28.8921 41.8137 28.6901C41.8538 28.6179 41.9162 28.5598 41.9921 28.5242C42.068 28.4885 42.1534 28.4772 42.2363 28.4917L44.0738 28.8414C44.2519 28.8834 44.4396 28.8599 44.6011 28.7753C44.7626 28.6908 44.8865 28.5513 44.9493 28.3833L45.2341 27.6176C45.2979 27.45 45.2963 27.2654 45.2299 27.0988C45.1634 26.9323 45.0366 26.7953 44.8736 26.7139L43.2293 25.8222C43.1565 25.782 43.0988 25.72 43.0649 25.6454C43.031 25.5707 43.0227 25.4874 43.0411 25.4077L43.0584 25.3183C43.0959 25.122 43.1305 24.9362 43.1637 24.7384C43.1752 24.6578 43.2125 24.5829 43.2702 24.5242C43.328 24.4656 43.4033 24.4262 43.4853 24.4119L45.338 24.1205C45.5196 24.0991 45.687 24.0138 45.8089 23.8807C45.9307 23.7475 45.9987 23.5756 46 23.397V22.5729ZM25.631 29.1884C25.5411 29.3409 25.4155 29.4704 25.2644 29.5663C25.1132 29.6622 24.9409 29.7217 24.7616 29.74C24.5824 29.7583 24.4012 29.7348 24.233 29.6714C24.0648 29.6081 23.9145 29.5067 23.7942 29.3756C22.1696 27.6225 21.2725 25.3416 21.2781 22.9778C21.2837 20.6141 22.1916 18.3372 23.8245 16.5915C23.9454 16.4605 24.0964 16.3593 24.2651 16.2964C24.4339 16.2335 24.6155 16.2106 24.7951 16.2297C24.9747 16.2487 25.1471 16.3091 25.2981 16.4059C25.449 16.5027 25.5743 16.6331 25.6635 16.7864L28.9555 22.4413C29.0544 22.6099 29.1064 22.8009 29.1064 22.9952C29.1064 23.1895 29.0544 23.3804 28.9555 23.549L25.631 29.1884ZM31 32.5088C30.3137 32.509 29.6294 32.4382 28.9584 32.2977C28.7836 32.2596 28.6205 32.1818 28.4822 32.0707C28.344 31.9596 28.2345 31.8182 28.1626 31.6581C28.0908 31.498 28.0586 31.3236 28.0687 31.1491C28.0788 30.9746 28.1308 30.8049 28.2207 30.6537L31.538 25.0234C31.6378 24.8538 31.7817 24.7128 31.9551 24.6149C32.1286 24.5169 32.3255 24.4653 32.526 24.4654H39.1707C39.3497 24.4651 39.5262 24.506 39.686 24.5847C39.8458 24.6634 39.9843 24.7778 40.0903 24.9185C40.1964 25.0592 40.267 25.2223 40.2964 25.3946C40.3258 25.5669 40.3132 25.7435 40.2596 25.9102C38.9983 29.7331 35.3269 32.5088 31 32.5088ZM31.5416 20.9739L28.2596 15.3339C28.1707 15.1824 28.1195 15.0126 28.1102 14.8383C28.1009 14.664 28.1338 14.49 28.2062 14.3303C28.2786 14.1707 28.3884 14.0299 28.5269 13.9194C28.6653 13.8089 28.8285 13.7317 29.0031 13.6941C29.6597 13.559 30.329 13.4911 31 13.4914C35.3269 13.4914 38.9983 16.2671 40.2575 20.0921C40.311 20.2587 40.3236 20.4354 40.2942 20.6077C40.2648 20.78 40.1942 20.9431 40.0882 21.0838C39.9821 21.2245 39.8436 21.3389 39.6838 21.4176C39.524 21.4963 39.3475 21.5372 39.1685 21.5369H32.5339C32.3322 21.5373 32.134 21.4854 31.9597 21.3865C31.7853 21.2875 31.641 21.1452 31.5416 20.9739Z" fill="#C10023"/>
<path d="M59.932 29L55.486 16.31H57.394L60.796 26.3L64.288 16.31H65.71L69.166 26.408L72.64 16.31H74.458L69.976 29H68.41L64.972 19.136L61.498 29H59.932ZM79.2438 29.162C77.8038 29.162 76.6698 28.76 75.8418 27.956C75.0138 27.14 74.5998 26.03 74.5998 24.626C74.5998 23.726 74.7798 22.934 75.1398 22.25C75.5118 21.554 76.0218 21.014 76.6698 20.63C77.3178 20.246 78.0618 20.054 78.9018 20.054C80.1138 20.054 81.0678 20.444 81.7638 21.224C82.4598 21.992 82.8078 23.054 82.8078 24.41V25.022H76.3638C76.4958 26.846 77.4618 27.758 79.2618 27.758C79.7658 27.758 80.2578 27.68 80.7378 27.524C81.2298 27.368 81.6918 27.11 82.1238 26.75L82.6638 28.01C82.2678 28.37 81.7578 28.652 81.1338 28.856C80.5098 29.06 79.8798 29.162 79.2438 29.162ZM78.9738 21.332C78.2178 21.332 77.6178 21.566 77.1738 22.034C76.7298 22.502 76.4598 23.126 76.3638 23.906H81.2778C81.2418 23.09 81.0258 22.46 80.6298 22.016C80.2338 21.56 79.6818 21.332 78.9738 21.332ZM89.7162 29V16.31H94.9722C96.3402 16.31 97.3962 16.652 98.1402 17.336C98.8842 18.008 99.2562 18.956 99.2562 20.18C99.2562 21.416 98.8842 22.376 98.1402 23.06C97.3962 23.732 96.3402 24.068 94.9722 24.068H91.5882V29H89.7162ZM91.5882 22.574H94.7022C96.5262 22.574 97.4382 21.776 97.4382 20.18C97.4382 18.596 96.5262 17.804 94.7022 17.804H91.5882V22.574ZM100.891 29V20.216H102.655V21.782C103.111 20.738 104.059 20.156 105.499 20.036L106.093 20L106.219 21.548L105.121 21.656C103.525 21.812 102.727 22.634 102.727 24.122V29H100.891ZM111.299 29.162C110.411 29.162 109.643 28.976 108.995 28.604C108.347 28.232 107.843 27.71 107.483 27.038C107.135 26.354 106.961 25.544 106.961 24.608C106.961 23.672 107.135 22.868 107.483 22.196C107.843 21.512 108.347 20.984 108.995 20.612C109.643 20.24 110.411 20.054 111.299 20.054C112.163 20.054 112.919 20.24 113.567 20.612C114.215 20.984 114.719 21.512 115.079 22.196C115.439 22.868 115.619 23.672 115.619 24.608C115.619 25.544 115.439 26.354 115.079 27.038C114.719 27.71 114.215 28.232 113.567 28.604C112.919 28.976 112.163 29.162 111.299 29.162ZM111.299 27.758C112.043 27.758 112.643 27.488 113.099 26.948C113.555 26.408 113.783 25.628 113.783 24.608C113.783 23.588 113.555 22.814 113.099 22.286C112.643 21.746 112.043 21.476 111.299 21.476C110.543 21.476 109.937 21.746 109.481 22.286C109.025 22.814 108.797 23.588 108.797 24.608C108.797 25.628 109.025 26.408 109.481 26.948C109.937 27.488 110.543 27.758 111.299 27.758ZM120.077 29L116.297 20.216H118.259L120.941 26.894L123.695 20.216H125.549L121.715 29H120.077ZM126.692 18.182V16.292H128.816V18.182H126.692ZM126.854 29V20.216H128.672V29H126.854ZM134.579 29.162C133.811 29.162 133.133 28.982 132.545 28.622C131.969 28.25 131.519 27.722 131.195 27.038C130.871 26.354 130.709 25.544 130.709 24.608C130.709 23.672 130.871 22.868 131.195 22.196C131.519 21.512 131.969 20.984 132.545 20.612C133.121 20.24 133.799 20.054 134.579 20.054C135.239 20.054 135.827 20.198 136.343 20.486C136.859 20.774 137.243 21.164 137.495 21.656V16.31H139.313V29H137.531V27.47C137.279 27.998 136.889 28.412 136.361 28.712C135.845 29.012 135.251 29.162 134.579 29.162ZM135.047 27.758C135.791 27.758 136.391 27.488 136.847 26.948C137.303 26.408 137.531 25.628 137.531 24.608C137.531 23.588 137.303 22.814 136.847 22.286C136.391 21.746 135.791 21.476 135.047 21.476C134.291 21.476 133.685 21.746 133.229 22.286C132.773 22.814 132.545 23.588 132.545 24.608C132.545 25.628 132.773 26.408 133.229 26.948C133.685 27.488 134.291 27.758 135.047 27.758ZM145.988 29.162C144.548 29.162 143.414 28.76 142.586 27.956C141.758 27.14 141.344 26.03 141.344 24.626C141.344 23.726 141.524 22.934 141.884 22.25C142.256 21.554 142.766 21.014 143.414 20.63C144.062 20.246 144.806 20.054 145.646 20.054C146.858 20.054 147.812 20.444 148.508 21.224C149.204 21.992 149.552 23.054 149.552 24.41V25.022H143.108C143.24 26.846 144.206 27.758 146.006 27.758C146.51 27.758 147.002 27.68 147.482 27.524C147.974 27.368 148.436 27.11 148.868 26.75L149.408 28.01C149.012 28.37 148.502 28.652 147.878 28.856C147.254 29.06 146.624 29.162 145.988 29.162ZM145.718 21.332C144.962 21.332 144.362 21.566 143.918 22.034C143.474 22.502 143.204 23.126 143.108 23.906H148.022C147.986 23.09 147.77 22.46 147.374 22.016C146.978 21.56 146.426 21.332 145.718 21.332ZM156.46 29V16.31H164.668V17.822H158.26V21.8H164.29V23.312H158.26V27.488H164.668V29H156.46ZM169.724 29.162C168.764 29.162 168.044 28.892 167.564 28.352C167.096 27.812 166.862 27.02 166.862 25.976V16.31H168.68V25.868C168.68 27.056 169.166 27.65 170.138 27.65C170.282 27.65 170.414 27.644 170.534 27.632C170.666 27.62 170.798 27.596 170.93 27.56L170.894 29.018C170.486 29.114 170.096 29.162 169.724 29.162ZM176.398 29.162C174.958 29.162 173.824 28.76 172.996 27.956C172.168 27.14 171.754 26.03 171.754 24.626C171.754 23.726 171.934 22.934 172.294 22.25C172.666 21.554 173.176 21.014 173.824 20.63C174.472 20.246 175.216 20.054 176.056 20.054C177.268 20.054 178.222 20.444 178.918 21.224C179.614 21.992 179.962 23.054 179.962 24.41V25.022H173.518C173.65 26.846 174.616 27.758 176.416 27.758C176.92 27.758 177.412 27.68 177.892 27.524C178.384 27.368 178.846 27.11 179.278 26.75L179.818 28.01C179.422 28.37 178.912 28.652 178.288 28.856C177.664 29.06 177.034 29.162 176.398 29.162ZM176.128 21.332C175.372 21.332 174.772 21.566 174.328 22.034C173.884 22.502 173.614 23.126 173.518 23.906H178.432C178.396 23.09 178.18 22.46 177.784 22.016C177.388 21.56 176.836 21.332 176.128 21.332ZM185.814 29.162C184.914 29.162 184.134 28.976 183.474 28.604C182.826 28.22 182.322 27.686 181.962 27.002C181.602 26.306 181.422 25.49 181.422 24.554C181.422 23.162 181.818 22.064 182.61 21.26C183.402 20.456 184.47 20.054 185.814 20.054C186.366 20.054 186.912 20.15 187.452 20.342C187.992 20.534 188.436 20.798 188.784 21.134L188.208 22.412C187.872 22.1 187.5 21.872 187.092 21.728C186.696 21.572 186.318 21.494 185.958 21.494C185.106 21.494 184.446 21.764 183.978 22.304C183.522 22.832 183.294 23.588 183.294 24.572C183.294 25.556 183.522 26.33 183.978 26.894C184.446 27.446 185.106 27.722 185.958 27.722C186.318 27.722 186.696 27.65 187.092 27.506C187.5 27.35 187.872 27.116 188.208 26.804L188.784 28.1C188.436 28.424 187.986 28.682 187.434 28.874C186.894 29.066 186.354 29.162 185.814 29.162ZM194.108 29.162C193.004 29.162 192.182 28.88 191.642 28.316C191.102 27.752 190.832 26.936 190.832 25.868V21.62H189.122V20.216H190.832V17.57H192.65V20.216H195.368V21.62H192.65V25.724C192.65 26.36 192.782 26.84 193.046 27.164C193.322 27.488 193.766 27.65 194.378 27.65C194.57 27.65 194.756 27.632 194.936 27.596C195.116 27.548 195.296 27.494 195.476 27.434L195.764 28.802C195.584 28.91 195.332 28.994 195.008 29.054C194.696 29.126 194.396 29.162 194.108 29.162ZM196.938 29V20.216H198.702V21.782C199.158 20.738 200.106 20.156 201.546 20.036L202.14 20L202.266 21.548L201.168 21.656C199.572 21.812 198.774 22.634 198.774 24.122V29H196.938ZM203.491 18.182V16.292H205.615V18.182H203.491ZM203.653 29V20.216H205.471V29H203.653ZM211.9 29.162C211 29.162 210.22 28.976 209.56 28.604C208.912 28.22 208.408 27.686 208.048 27.002C207.688 26.306 207.508 25.49 207.508 24.554C207.508 23.162 207.904 22.064 208.696 21.26C209.488 20.456 210.556 20.054 211.9 20.054C212.452 20.054 212.998 20.15 213.538 20.342C214.078 20.534 214.522 20.798 214.87 21.134L214.294 22.412C213.958 22.1 213.586 21.872 213.178 21.728C212.782 21.572 212.404 21.494 212.044 21.494C211.192 21.494 210.532 21.764 210.064 22.304C209.608 22.832 209.38 23.588 209.38 24.572C209.38 25.556 209.608 26.33 210.064 26.894C210.532 27.446 211.192 27.722 212.044 27.722C212.404 27.722 212.782 27.65 213.178 27.506C213.586 27.35 213.958 27.116 214.294 26.804L214.87 28.1C214.522 28.424 214.072 28.682 213.52 28.874C212.98 29.066 212.44 29.162 211.9 29.162ZM225.589 29.162C224.593 29.162 223.681 29.036 222.853 28.784C222.025 28.52 221.323 28.154 220.747 27.686L221.341 26.21C221.941 26.666 222.583 27.008 223.267 27.236C223.951 27.464 224.725 27.578 225.589 27.578C226.609 27.578 227.359 27.398 227.839 27.038C228.331 26.666 228.577 26.186 228.577 25.598C228.577 25.118 228.403 24.74 228.055 24.464C227.707 24.176 227.125 23.948 226.309 23.78L224.383 23.384C223.243 23.144 222.391 22.748 221.827 22.196C221.275 21.644 220.999 20.9 220.999 19.964C220.999 19.208 221.197 18.542 221.593 17.966C222.001 17.39 222.565 16.946 223.285 16.634C224.005 16.31 224.833 16.148 225.769 16.148C226.633 16.148 227.431 16.28 228.163 16.544C228.907 16.796 229.537 17.168 230.053 17.66L229.441 19.082C228.421 18.182 227.191 17.732 225.751 17.732C224.863 17.732 224.155 17.93 223.627 18.326C223.111 18.722 222.853 19.25 222.853 19.91C222.853 20.414 223.015 20.816 223.339 21.116C223.663 21.416 224.203 21.644 224.959 21.8L226.867 22.196C228.067 22.448 228.961 22.838 229.549 23.366C230.137 23.882 230.431 24.584 230.431 25.472C230.431 26.216 230.233 26.864 229.837 27.416C229.441 27.968 228.883 28.4 228.163 28.712C227.443 29.012 226.585 29.162 225.589 29.162ZM236.48 29.162C235.04 29.162 233.906 28.76 233.078 27.956C232.25 27.14 231.836 26.03 231.836 24.626C231.836 23.726 232.016 22.934 232.376 22.25C232.748 21.554 233.258 21.014 233.906 20.63C234.554 20.246 235.298 20.054 236.138 20.054C237.35 20.054 238.304 20.444 239 21.224C239.696 21.992 240.044 23.054 240.044 24.41V25.022H233.6C233.732 26.846 234.698 27.758 236.498 27.758C237.002 27.758 237.494 27.68 237.974 27.524C238.466 27.368 238.928 27.11 239.36 26.75L239.9 28.01C239.504 28.37 238.994 28.652 238.37 28.856C237.746 29.06 237.116 29.162 236.48 29.162ZM236.21 21.332C235.454 21.332 234.854 21.566 234.41 22.034C233.966 22.502 233.696 23.126 233.6 23.906H238.514C238.478 23.09 238.262 22.46 237.866 22.016C237.47 21.56 236.918 21.332 236.21 21.332ZM242.026 29V20.216H243.79V21.782C244.246 20.738 245.194 20.156 246.634 20.036L247.228 20L247.354 21.548L246.256 21.656C244.66 21.812 243.862 22.634 243.862 24.122V29H242.026ZM251.86 29L248.08 20.216H250.042L252.724 26.894L255.478 20.216H257.332L253.498 29H251.86ZM258.475 18.182V16.292H260.599V18.182H258.475ZM258.637 29V20.216H260.455V29H258.637ZM266.884 29.162C265.984 29.162 265.204 28.976 264.544 28.604C263.896 28.22 263.392 27.686 263.032 27.002C262.672 26.306 262.492 25.49 262.492 24.554C262.492 23.162 262.888 22.064 263.68 21.26C264.472 20.456 265.54 20.054 266.884 20.054C267.436 20.054 267.982 20.15 268.522 20.342C269.062 20.534 269.506 20.798 269.854 21.134L269.278 22.412C268.942 22.1 268.57 21.872 268.162 21.728C267.766 21.572 267.388 21.494 267.028 21.494C266.176 21.494 265.516 21.764 265.048 22.304C264.592 22.832 264.364 23.588 264.364 24.572C264.364 25.556 264.592 26.33 265.048 26.894C265.516 27.446 266.176 27.722 267.028 27.722C267.388 27.722 267.766 27.65 268.162 27.506C268.57 27.35 268.942 27.116 269.278 26.804L269.854 28.1C269.506 28.424 269.056 28.682 268.504 28.874C267.964 29.066 267.424 29.162 266.884 29.162ZM275.363 29.162C273.923 29.162 272.789 28.76 271.961 27.956C271.133 27.14 270.719 26.03 270.719 24.626C270.719 23.726 270.899 22.934 271.259 22.25C271.631 21.554 272.141 21.014 272.789 20.63C273.437 20.246 274.181 20.054 275.021 20.054C276.233 20.054 277.187 20.444 277.883 21.224C278.579 21.992 278.927 23.054 278.927 24.41V25.022H272.483C272.615 26.846 273.581 27.758 275.381 27.758C275.885 27.758 276.377 27.68 276.857 27.524C277.349 27.368 277.811 27.11 278.243 26.75L278.783 28.01C278.387 28.37 277.877 28.652 277.253 28.856C276.629 29.06 275.999 29.162 275.363 29.162ZM275.093 21.332C274.337 21.332 273.737 21.566 273.293 22.034C272.849 22.502 272.579 23.126 272.483 23.906H277.397C277.361 23.09 277.145 22.46 276.749 22.016C276.353 21.56 275.801 21.332 275.093 21.332ZM283.987 29.162C283.267 29.162 282.595 29.072 281.971 28.892C281.347 28.7 280.825 28.436 280.405 28.1L280.927 26.876C281.371 27.188 281.857 27.428 282.385 27.596C282.925 27.764 283.465 27.848 284.005 27.848C284.641 27.848 285.121 27.734 285.445 27.506C285.769 27.278 285.931 26.972 285.931 26.588C285.931 26.276 285.823 26.036 285.607 25.868C285.391 25.688 285.067 25.55 284.635 25.454L282.925 25.112C281.413 24.8 280.657 24.02 280.657 22.772C280.657 21.944 280.987 21.284 281.647 20.792C282.307 20.3 283.171 20.054 284.239 20.054C284.851 20.054 285.433 20.144 285.985 20.324C286.549 20.504 287.017 20.774 287.389 21.134L286.867 22.358C286.507 22.046 286.093 21.806 285.625 21.638C285.157 21.47 284.695 21.386 284.239 21.386C283.615 21.386 283.141 21.506 282.817 21.746C282.493 21.974 282.331 22.286 282.331 22.682C282.331 23.282 282.727 23.666 283.519 23.834L285.229 24.176C286.009 24.332 286.597 24.596 286.993 24.968C287.401 25.34 287.605 25.844 287.605 26.48C287.605 27.32 287.275 27.98 286.615 28.46C285.955 28.928 285.079 29.162 283.987 29.162ZM294.554 29V16.31H302.618V17.822H296.426V21.872H302.24V23.384H296.426V29H294.554ZM307.805 29.162C306.917 29.162 306.149 28.976 305.501 28.604C304.853 28.232 304.349 27.71 303.989 27.038C303.641 26.354 303.467 25.544 303.467 24.608C303.467 23.672 303.641 22.868 303.989 22.196C304.349 21.512 304.853 20.984 305.501 20.612C306.149 20.24 306.917 20.054 307.805 20.054C308.669 20.054 309.425 20.24 310.073 20.612C310.721 20.984 311.225 21.512 311.585 22.196C311.945 22.868 312.125 23.672 312.125 24.608C312.125 25.544 311.945 26.354 311.585 27.038C311.225 27.71 310.721 28.232 310.073 28.604C309.425 28.976 308.669 29.162 307.805 29.162ZM307.805 27.758C308.549 27.758 309.149 27.488 309.605 26.948C310.061 26.408 310.289 25.628 310.289 24.608C310.289 23.588 310.061 22.814 309.605 22.286C309.149 21.746 308.549 21.476 307.805 21.476C307.049 21.476 306.443 21.746 305.987 22.286C305.531 22.814 305.303 23.588 305.303 24.608C305.303 25.628 305.531 26.408 305.987 26.948C306.443 27.488 307.049 27.758 307.805 27.758ZM314.167 29V20.216H315.931V21.782C316.387 20.738 317.335 20.156 318.775 20.036L319.369 20L319.495 21.548L318.397 21.656C316.801 21.812 316.003 22.634 316.003 24.122V29H314.167ZM325.808 29V16.31H327.68V29H325.808ZM330.409 29V20.216H332.173V21.674C332.473 21.146 332.881 20.744 333.397 20.468C333.925 20.192 334.513 20.054 335.161 20.054C337.237 20.054 338.275 21.23 338.275 23.582V29H336.457V23.69C336.457 22.934 336.307 22.382 336.007 22.034C335.719 21.686 335.263 21.512 334.639 21.512C333.907 21.512 333.319 21.746 332.875 22.214C332.443 22.67 332.227 23.276 332.227 24.032V29H330.409ZM344.128 29.162C343.36 29.162 342.682 28.982 342.094 28.622C341.518 28.25 341.068 27.722 340.744 27.038C340.42 26.354 340.258 25.544 340.258 24.608C340.258 23.672 340.42 22.868 340.744 22.196C341.068 21.512 341.518 20.984 342.094 20.612C342.67 20.24 343.348 20.054 344.128 20.054C344.788 20.054 345.376 20.198 345.892 20.486C346.408 20.774 346.792 21.164 347.044 21.656V16.31H348.862V29H347.08V27.47C346.828 27.998 346.438 28.412 345.91 28.712C345.394 29.012 344.8 29.162 344.128 29.162ZM344.596 27.758C345.34 27.758 345.94 27.488 346.396 26.948C346.852 26.408 347.08 25.628 347.08 24.608C347.08 23.588 346.852 22.814 346.396 22.286C345.94 21.746 345.34 21.476 344.596 21.476C343.84 21.476 343.234 21.746 342.778 22.286C342.322 22.814 342.094 23.588 342.094 24.608C342.094 25.628 342.322 26.408 342.778 26.948C343.234 27.488 343.84 27.758 344.596 27.758ZM354.547 29.162C352.423 29.162 351.361 27.98 351.361 25.616V20.216H353.179V25.634C353.179 26.342 353.323 26.864 353.611 27.2C353.899 27.536 354.355 27.704 354.979 27.704C355.663 27.704 356.215 27.476 356.635 27.02C357.067 26.564 357.283 25.952 357.283 25.184V20.216H359.101V29H357.337V27.596C357.049 28.112 356.665 28.502 356.185 28.766C355.705 29.03 355.159 29.162 354.547 29.162ZM364.741 29.162C364.021 29.162 363.349 29.072 362.725 28.892C362.101 28.7 361.579 28.436 361.159 28.1L361.681 26.876C362.125 27.188 362.611 27.428 363.139 27.596C363.679 27.764 364.219 27.848 364.759 27.848C365.395 27.848 365.875 27.734 366.199 27.506C366.523 27.278 366.685 26.972 366.685 26.588C366.685 26.276 366.577 26.036 366.361 25.868C366.145 25.688 365.821 25.55 365.389 25.454L363.679 25.112C362.167 24.8 361.411 24.02 361.411 22.772C361.411 21.944 361.741 21.284 362.401 20.792C363.061 20.3 363.925 20.054 364.993 20.054C365.605 20.054 366.187 20.144 366.739 20.324C367.303 20.504 367.771 20.774 368.143 21.134L367.621 22.358C367.261 22.046 366.847 21.806 366.379 21.638C365.911 21.47 365.449 21.386 364.993 21.386C364.369 21.386 363.895 21.506 363.571 21.746C363.247 21.974 363.085 22.286 363.085 22.682C363.085 23.282 363.481 23.666 364.273 23.834L365.983 24.176C366.763 24.332 367.351 24.596 367.747 24.968C368.155 25.34 368.359 25.844 368.359 26.48C368.359 27.32 368.029 27.98 367.369 28.46C366.709 28.928 365.833 29.162 364.741 29.162ZM374.038 29.162C372.934 29.162 372.112 28.88 371.572 28.316C371.032 27.752 370.762 26.936 370.762 25.868V21.62H369.052V20.216H370.762V17.57H372.58V20.216H375.298V21.62H372.58V25.724C372.58 26.36 372.712 26.84 372.976 27.164C373.252 27.488 373.696 27.65 374.308 27.65C374.5 27.65 374.686 27.632 374.866 27.596C375.046 27.548 375.226 27.494 375.406 27.434L375.694 28.802C375.514 28.91 375.262 28.994 374.938 29.054C374.626 29.126 374.326 29.162 374.038 29.162ZM376.868 29V20.216H378.632V21.782C379.088 20.738 380.036 20.156 381.476 20.036L382.07 20L382.196 21.548L381.098 21.656C379.502 21.812 378.704 22.634 378.704 24.122V29H376.868ZM383.421 18.182V16.292H385.545V18.182H383.421ZM383.583 29V20.216H385.401V29H383.583ZM390.768 29.162C390.156 29.162 389.61 29.042 389.13 28.802C388.65 28.562 388.266 28.238 387.978 27.83C387.702 27.422 387.564 26.96 387.564 26.444C387.564 25.796 387.726 25.286 388.05 24.914C388.386 24.542 388.932 24.272 389.688 24.104C390.456 23.936 391.488 23.852 392.784 23.852H393.396V23.384C393.396 22.7 393.252 22.208 392.964 21.908C392.676 21.608 392.202 21.458 391.542 21.458C391.038 21.458 390.534 21.536 390.03 21.692C389.526 21.836 389.01 22.07 388.482 22.394L387.924 21.116C388.38 20.792 388.95 20.534 389.634 20.342C390.318 20.15 390.972 20.054 391.596 20.054C392.796 20.054 393.684 20.342 394.26 20.918C394.836 21.482 395.124 22.37 395.124 23.582V29H393.414V27.542C393.198 28.046 392.862 28.442 392.406 28.73C391.95 29.018 391.404 29.162 390.768 29.162ZM391.128 27.866C391.776 27.866 392.316 27.638 392.748 27.182C393.18 26.726 393.396 26.15 393.396 25.454V24.968H392.802C391.926 24.968 391.236 25.01 390.732 25.094C390.24 25.178 389.886 25.322 389.67 25.526C389.466 25.718 389.364 25.988 389.364 26.336C389.364 26.792 389.52 27.164 389.832 27.452C390.144 27.728 390.576 27.866 391.128 27.866ZM400.49 29.162C399.53 29.162 398.81 28.892 398.33 28.352C397.862 27.812 397.628 27.02 397.628 25.976V16.31H399.446V25.868C399.446 27.056 399.932 27.65 400.904 27.65C401.048 27.65 401.18 27.644 401.3 27.632C401.432 27.62 401.564 27.596 401.696 27.56L401.66 29.018C401.252 29.114 400.862 29.162 400.49 29.162ZM408.056 29V16.31H413.312C414.68 16.31 415.736 16.652 416.48 17.336C417.224 18.008 417.596 18.956 417.596 20.18C417.596 21.416 417.224 22.376 416.48 23.06C415.736 23.732 414.68 24.068 413.312 24.068H409.928V29H408.056ZM409.928 22.574H413.042C414.866 22.574 415.778 21.776 415.778 20.18C415.778 18.596 414.866 17.804 413.042 17.804H409.928V22.574ZM419.231 29V20.216H420.995V21.782C421.451 20.738 422.399 20.156 423.839 20.036L424.433 20L424.559 21.548L423.461 21.656C421.865 21.812 421.067 22.634 421.067 24.122V29H419.231ZM429.639 29.162C428.751 29.162 427.983 28.976 427.335 28.604C426.687 28.232 426.183 27.71 425.823 27.038C425.475 26.354 425.301 25.544 425.301 24.608C425.301 23.672 425.475 22.868 425.823 22.196C426.183 21.512 426.687 20.984 427.335 20.612C427.983 20.24 428.751 20.054 429.639 20.054C430.503 20.054 431.259 20.24 431.907 20.612C432.555 20.984 433.059 21.512 433.419 22.196C433.779 22.868 433.959 23.672 433.959 24.608C433.959 25.544 433.779 26.354 433.419 27.038C433.059 27.71 432.555 28.232 431.907 28.604C431.259 28.976 430.503 29.162 429.639 29.162ZM429.639 27.758C430.383 27.758 430.983 27.488 431.439 26.948C431.895 26.408 432.123 25.628 432.123 24.608C432.123 23.588 431.895 22.814 431.439 22.286C430.983 21.746 430.383 21.476 429.639 21.476C428.883 21.476 428.277 21.746 427.821 22.286C427.365 22.814 427.137 23.588 427.137 24.608C427.137 25.628 427.365 26.408 427.821 26.948C428.277 27.488 428.883 27.758 429.639 27.758ZM435.911 18.182V16.292H438.035V18.182H435.911ZM433.859 32.474L433.733 31.106L434.525 31.034C435.545 30.926 436.055 30.314 436.055 29.198V20.216H437.873V29C437.873 30.104 437.615 30.926 437.099 31.466C436.595 32.018 435.773 32.336 434.633 32.42L433.859 32.474ZM444.552 29.162C443.112 29.162 441.978 28.76 441.15 27.956C440.322 27.14 439.908 26.03 439.908 24.626C439.908 23.726 440.088 22.934 440.448 22.25C440.82 21.554 441.33 21.014 441.978 20.63C442.626 20.246 443.37 20.054 444.21 20.054C445.422 20.054 446.376 20.444 447.072 21.224C447.768 21.992 448.116 23.054 448.116 24.41V25.022H441.672C441.804 26.846 442.77 27.758 444.57 27.758C445.074 27.758 445.566 27.68 446.046 27.524C446.538 27.368 447 27.11 447.432 26.75L447.972 28.01C447.576 28.37 447.066 28.652 446.442 28.856C445.818 29.06 445.188 29.162 444.552 29.162ZM444.282 21.332C443.526 21.332 442.926 21.566 442.482 22.034C442.038 22.502 441.768 23.126 441.672 23.906H446.586C446.55 23.09 446.334 22.46 445.938 22.016C445.542 21.56 444.99 21.332 444.282 21.332ZM453.968 29.162C453.068 29.162 452.288 28.976 451.628 28.604C450.98 28.22 450.476 27.686 450.116 27.002C449.756 26.306 449.576 25.49 449.576 24.554C449.576 23.162 449.972 22.064 450.764 21.26C451.556 20.456 452.624 20.054 453.968 20.054C454.52 20.054 455.066 20.15 455.606 20.342C456.146 20.534 456.59 20.798 456.938 21.134L456.362 22.412C456.026 22.1 455.654 21.872 455.246 21.728C454.85 21.572 454.472 21.494 454.112 21.494C453.26 21.494 452.6 21.764 452.132 22.304C451.676 22.832 451.448 23.588 451.448 24.572C451.448 25.556 451.676 26.33 452.132 26.894C452.6 27.446 453.26 27.722 454.112 27.722C454.472 27.722 454.85 27.65 455.246 27.506C455.654 27.35 456.026 27.116 456.362 26.804L456.938 28.1C456.59 28.424 456.14 28.682 455.588 28.874C455.048 29.066 454.508 29.162 453.968 29.162ZM462.262 29.162C461.158 29.162 460.336 28.88 459.796 28.316C459.256 27.752 458.986 26.936 458.986 25.868V21.62H457.276V20.216H458.986V17.57H460.804V20.216H463.522V21.62H460.804V25.724C460.804 26.36 460.936 26.84 461.2 27.164C461.476 27.488 461.92 27.65 462.532 27.65C462.724 27.65 462.91 27.632 463.09 27.596C463.27 27.548 463.45 27.494 463.63 27.434L463.918 28.802C463.738 28.91 463.486 28.994 463.162 29.054C462.85 29.126 462.55 29.162 462.262 29.162Z" fill="white"/>
</svg>
