<svg xmlns="http://www.w3.org/2000/svg" width="24" height="24" fill="none"><path stroke="#FFCC29" stroke-linecap="round" stroke-linejoin="round" stroke-width="2" d="M18.94 10.023v10.315a2.243 2.243 0 0 1-2.243 2.242H3.242A2.24 2.24 0 0 1 1 20.338V6.883a2.24 2.24 0 0 1 2.242-2.242h9.39"/><path fill="#FFCC29" d="M22.926.723a.927.927 0 0 0-1.34-.032l-.714.71a.46.46 0 0 0 0 .653l.654.653a.46.46 0 0 0 .655 0l.696-.693c.352-.351.385-.923.049-1.291m-3.497 2.12L9.01 13.243a.5.5 0 0 0-.133.227l-.482 1.435a.226.226 0 0 0 .28.28l1.435-.482a.5.5 0 0 0 .226-.133l10.4-10.418a.52.52 0 0 0 0-.73l-.575-.577a.52.52 0 0 0-.733 0"/></svg>