<svg width="43" height="45" viewBox="0 0 43 45" fill="none" xmlns="http://www.w3.org/2000/svg">
<path d="M21.3092 11.1651V23.0448L27.0939 28.8295M9.89273 36.5964L3.94557 43.5009M38.8785 43.5009L32.9313 36.5964M39.1905 23.0448C39.1905 32.8531 31.2393 40.8042 21.4311 40.8042C11.6228 40.8042 3.67166 32.8531 3.67166 23.0448C3.67166 13.2366 11.6228 5.28544 21.4311 5.28544C31.2393 5.28544 39.1905 13.2366 39.1905 23.0448ZM12.4502 3.55973C11.3296 2.47105 9.80108 1.79883 8.11535 1.79883C4.67994 1.79883 1.89429 4.58448 1.89429 8.01989C1.89429 9.43777 2.36951 10.7433 3.16788 11.7897C5.37635 8.21343 8.60612 5.33446 12.4502 3.55973ZM30.6752 3.56003C31.7959 2.47134 33.3243 1.79912 35.0101 1.79912C38.4455 1.79912 41.2311 4.58477 41.2311 8.02018C41.2311 9.43807 40.7559 10.7436 39.9575 11.79C37.7491 8.21373 34.5193 5.33476 30.6752 3.56003Z" stroke="#FFCC29" stroke-width="2.91545" stroke-miterlimit="10"/>
</svg>
