<svg width="15" height="15" viewBox="0 0 15 15" fill="none" xmlns="http://www.w3.org/2000/svg">
<path d="M7.47091 0.549805C3.68156 0.549805 0.609375 3.62199 0.609375 7.41134C0.609375 11.2007 3.68156 14.2729 7.47091 14.2729C11.2603 14.2729 14.3325 11.2007 14.3325 7.41134C14.3325 3.62199 11.2603 0.549805 7.47091 0.549805ZM10.6378 8.46696H7.47091C7.33093 8.46696 7.19668 8.41136 7.09769 8.31237C6.99871 8.21339 6.9431 8.07914 6.9431 7.93915V3.18886C6.9431 3.04887 6.99871 2.91462 7.09769 2.81564C7.19668 2.71666 7.33093 2.66105 7.47091 2.66105C7.6109 2.66105 7.74515 2.71666 7.84413 2.81564C7.94312 2.91462 7.99872 3.04887 7.99872 3.18886V7.41134H10.6378C10.7778 7.41134 10.912 7.46695 11.011 7.56593C11.11 7.66492 11.1656 7.79917 11.1656 7.93915C11.1656 8.07914 11.11 8.21339 11.011 8.31237C10.912 8.41136 10.7778 8.46696 10.6378 8.46696Z" fill="white"/>
</svg>
