<svg width="150" height="300" viewBox="0 0 150 300" fill="none" xmlns="http://www.w3.org/2000/svg">
<path d="M0 300C19.6983 300 39.2037 296.12 57.4025 288.582C75.6014 281.044 92.1372 269.995 106.066 256.066C119.995 242.137 131.044 225.601 138.582 207.403C146.12 189.204 150 169.698 150 150C150 130.302 146.12 110.796 138.582 92.5975C131.044 74.3986 119.995 57.8628 106.066 43.934C92.1372 30.0052 75.6013 18.9563 57.4025 11.4181C39.2037 3.87985 19.6983 0 -1.52588e-05 0V4.8335C19.0635 4.8335 37.9404 8.58835 55.5528 15.8836C73.1652 23.1789 89.1683 33.8718 102.648 47.3518C116.128 60.8317 126.821 76.8348 134.116 94.4472C141.412 112.06 145.167 130.936 145.167 150C145.167 169.064 141.412 187.94 134.116 205.553C126.821 223.165 116.128 239.168 102.648 252.648C89.1683 266.128 73.1652 276.821 55.5528 284.116C37.9404 291.412 19.0635 295.167 0 295.167V300Z" fill="#C10023"/>
</svg>
