<svg width="110" height="220" viewBox="0 0 110 220" fill="none" xmlns="http://www.w3.org/2000/svg">
<path d="M0 220C14.4454 220 28.7494 217.155 42.0952 211.627C55.441 206.099 67.5673 197.996 77.7817 187.782C87.9962 177.567 96.0987 165.441 101.627 152.095C107.155 138.749 110 124.445 110 110C110 95.5546 107.155 81.2506 101.627 67.9048C96.0987 54.559 87.9962 42.4327 77.7817 32.2182C67.5673 22.0038 55.441 13.9013 42.0952 8.37325C28.7494 2.84523 14.4454 0 -7.62939e-06 0V3.54457C13.9799 3.54457 27.823 6.29813 40.7387 11.648C53.6545 16.9979 65.39 24.8393 75.2754 34.7246C85.1607 44.6099 93.0021 56.3455 98.352 69.2613C103.702 82.177 106.455 96.0201 106.455 110C106.455 123.98 103.702 137.823 98.352 150.739C93.0021 163.654 85.1607 175.39 75.2754 185.275C65.3901 195.161 53.6545 203.002 40.7387 208.352C27.823 213.702 13.9799 216.455 0 216.455V220Z" fill="#A4A4A4"/>
</svg>
