<svg xmlns="http://www.w3.org/2000/svg" width="80" height="80" fill="none"><rect width="80" height="80" fill="#FFCC29" rx="10"/><path fill="#C10023" fill-rule="evenodd" d="M52.002 24h-24a8 8 0 0 0-8 8v18a8 8 0 0 0 8 8h24a8 8 0 0 0 8-8V32a8 8 0 0 0-8-8m-24 3.18h24a4.8 4.8 0 0 1 4.6 3.46l-15.08 11.18a2.12 2.12 0 0 1-3.06-.1l-15.02-11.06a4.8 4.8 0 0 1 4.56-3.48M23.182 50a4.82 4.82 0 0 0 4.82 4.82h24a4.82 4.82 0 0 0 4.8-4.82V33.94l-13.6 10a4.7 4.7 0 0 1-3.2 1.26 4.98 4.98 0 0 1-3.32-1.34l-13.5-10z" clip-rule="evenodd"/></svg>