<svg width="34" height="45" viewBox="0 0 34 45" fill="none" xmlns="http://www.w3.org/2000/svg">
<path d="M26.2904 8.35503H31.7764C31.9331 8.35503 32.0593 8.48211 32.0593 8.63791V42.8835C32.0593 43.0402 31.9322 43.1664 31.7764 43.1664H2.5922C2.43553 43.1664 2.30933 43.0393 2.30933 42.8835V8.63791C2.30933 8.48124 2.4364 8.35503 2.5922 8.35503H8.06349M20.4022 5.9441H24.8212C25.0919 5.9441 25.3112 6.16344 25.3112 6.43414V10.1838C25.3112 10.4545 25.0919 10.6738 24.8212 10.6738H9.54753C9.27684 10.6738 9.0575 10.4545 9.0575 10.1838V6.43414C9.0575 6.16344 9.27684 5.9441 9.54753 5.9441H13.963M13.963 5.77261C13.936 5.61246 14.2006 4.82736 14.2006 4.65938C14.2006 3.01086 15.5366 1.6748 17.1851 1.6748C18.8337 1.6748 20.1697 3.01086 20.1697 4.65938C20.1697 4.7821 20.3142 5.79176 20.2994 5.91013M7.00781 19.8555L8.5223 21.0949L13.2059 16.756M15.7534 19.4422H27.0476M7.00781 27.2243L8.5223 28.4638L13.2059 24.1249M15.7534 26.8109H27.0476M7.00781 34.593L8.5223 35.8324L13.2059 31.4935M15.7534 34.1795H27.0476" stroke="#FFCC29" stroke-width="2.91545" stroke-miterlimit="10" stroke-linecap="round"/>
</svg>
