<svg xmlns="http://www.w3.org/2000/svg" width="18" height="13" fill="none"><path fill="#000" fill-rule="evenodd" d="M10.77 4.618a2.29 2.29 0 0 0 2.056-1.399.7.7 0 0 0 .237.052h4.114a.771.771 0 1 0 0-1.543h-4.063a.5.5 0 0 0-.133 0 2.294 2.294 0 1 0-2.212 2.86zm0-3.034a.75.75 0 1 1 0 1.502.75.75 0 0 1 0-1.502" clip-rule="evenodd"/><path fill="#000" d="M.771 1.728h6.172a.771.771 0 1 1 0 1.543H.77a.771.771 0 1 1 0-1.543"/><path fill="#000" fill-rule="evenodd" d="M2.736 9.955a2.28 2.28 0 0 1 2.15-1.522v-.02a2.294 2.294 0 1 1-2.15 3.085H.771a.771.771 0 1 1 0-1.543zm1.4.826a.75.75 0 0 0 .75.738v-.041a.75.75 0 0 0 .75-.751.75.75 0 0 0-1.5.054" clip-rule="evenodd"/><path fill="#000" d="M9 9.955h8.229a.771.771 0 1 1 0 1.543H9a.771.771 0 1 1 0-1.543"/></svg>