<svg width="251" height="60" viewBox="0 0 251 60" fill="none" xmlns="http://www.w3.org/2000/svg">
<path d="M51.513 0C50.9561 0.822842 50.3732 1.61872 49.7816 2.40666C49.1919 3.19616 48.5873 3.97099 47.9793 4.74201C47.1106 5.83608 46.2279 6.91684 45.331 7.98327C45.0543 8.31237 44.7767 8.64063 44.4966 8.96679C44.41 9.06838 44.3228 9.17028 44.2354 9.27186C44.0559 9.4809 43.8761 9.68943 43.6957 9.8976C41.3153 12.6443 38.8561 15.3113 36.3383 17.9199C34.4414 19.8828 32.5101 21.8109 30.5372 23.6971H30.5365C29.8324 24.3705 29.1228 25.038 28.4075 25.7002C28.3928 25.7137 28.378 25.7275 28.3628 25.7411C28.2338 25.8607 28.1051 25.9799 27.9756 26.0984C26.5404 27.4202 25.0774 28.7141 23.5879 29.9801C22.8399 30.6107 22.0889 31.2376 21.3234 31.85C20.5591 32.4638 19.7863 33.0688 18.9869 33.6474C19.5428 32.8237 20.1255 32.0271 20.7162 31.239C21.3059 30.4491 21.91 29.674 22.518 28.9026C23.4397 27.7417 24.3765 26.5958 25.3293 25.4665C25.6384 25.1 25.9488 24.7353 26.2612 24.3724C26.3442 24.2755 26.4276 24.1787 26.5116 24.0822C28.9823 21.2173 31.5391 18.4397 34.1613 15.7274C36.7264 13.0782 39.3519 10.4896 42.0597 7.98327C42.2153 7.83936 42.3711 7.69509 42.5272 7.55205C42.9146 7.19548 43.3041 6.84064 43.6954 6.48822C44.754 5.53391 45.8271 4.59498 46.9148 3.67003C47.6619 3.0393 48.4131 2.41204 49.1784 1.79944C49.9421 1.18494 50.7142 0.579082 51.513 0Z" fill="white"/>
<path d="M35.8781 0C36.6767 0.579427 37.4487 1.18495 38.2127 1.79927C38.978 2.41187 39.729 3.03913 40.4763 3.66987C41.9658 4.93669 43.4284 6.23029 44.8636 7.55205C47.7371 10.1918 50.5167 12.9257 53.2295 15.7276C55.9406 18.5311 58.5815 21.4053 61.1299 24.3724C62.4051 25.8548 63.6527 27.3649 64.8732 28.9026C65.4811 29.6741 66.0852 30.4491 66.6747 31.2388C67.2658 32.0271 67.8482 32.8238 68.404 33.6474C67.6046 33.069 66.8321 32.4637 66.0677 31.85C65.3022 31.2376 64.551 30.6107 63.8035 29.9804C62.3135 28.7138 60.8505 27.4204 59.4154 26.0988C56.543 23.4578 53.7627 20.7243 51.0528 17.9198C48.3444 15.1138 45.7034 12.2395 43.1557 9.27169C41.8803 7.78909 40.6329 6.27903 39.4118 4.74167C38.8036 3.97083 38.1994 3.19617 37.6095 2.4065C37.0178 1.6189 36.4348 0.822842 35.8781 0Z" fill="white"/>
<path d="M46.4282 18.339C46.4282 20.0182 45.095 21.3796 43.4491 21.3796C41.8047 21.3796 40.4718 20.0182 40.4718 18.339C40.4718 16.6608 41.8047 15.2993 43.4491 15.2993C45.095 15.2993 46.4282 16.6606 46.4282 18.339Z" fill="white"/>
<path d="M58.9967 23.9727L53.4737 19.1065V9.84619H58.9887L58.9967 23.9727Z" fill="white"/>
<path d="M0 55.8585C0.168755 55.3431 0.370364 54.8387 0.581096 54.338C0.791828 53.8374 1.01895 53.3431 1.25591 52.8535C1.73103 51.8749 2.25155 50.9169 2.80944 49.979C3.9281 48.1053 5.19892 46.3136 6.61091 44.6291C8.0229 42.9445 9.57758 41.3674 11.2653 39.9308C12.1084 39.2118 12.9868 38.5311 13.8939 37.8867C14.8035 37.2466 15.7406 36.6406 16.7091 36.0852C18.6421 34.9676 20.6902 34.0361 22.8102 33.3057C23.8713 32.9438 24.9487 32.6257 26.0402 32.3676C26.5856 32.237 27.1343 32.1196 27.6848 32.0135C28.2359 31.9098 28.7889 31.8191 29.3439 31.7402C31.5633 31.4235 33.8077 31.3188 36.0372 31.3954C37.1523 31.4332 38.2635 31.5222 39.3682 31.6467C40.4729 31.7746 41.5703 31.9463 42.6587 32.1517C43.7469 32.3607 44.8253 32.6081 45.8937 32.8859C46.3739 33.0127 46.8756 33.1368 47.3722 33.2556C47.8695 33.3747 48.3683 33.4868 48.8673 33.596C49.8646 33.8171 50.8665 34.0107 51.8697 34.189C52.8729 34.368 53.8798 34.518 54.8878 34.6525C58.9199 35.1801 62.9904 35.3282 67.0315 34.9797C68.0412 34.8899 69.0496 34.7745 70.0532 34.6201C71.0578 34.4703 72.0571 34.2823 73.0517 34.0643C75.0405 33.6255 77.0065 33.0473 78.9322 32.3236C80.8581 31.5999 82.7442 30.7311 84.5699 29.7131C86.397 28.6964 88.1605 27.5296 89.8579 26.2227C88.5353 27.9243 86.9936 29.4648 85.3198 30.8519C83.6438 32.2374 81.8264 33.4648 79.9097 34.5212C76.0744 36.6363 71.8475 38.0591 67.5188 38.8122C66.4364 39.0037 65.3472 39.1492 64.2546 39.262C63.7081 39.3183 63.1606 39.3617 62.6131 39.3988C62.0655 39.4353 61.5173 39.4647 60.9687 39.4813C59.8722 39.516 58.7751 39.5196 57.6798 39.484C57.1324 39.4668 56.5848 39.4438 56.0386 39.4101C55.4921 39.3762 54.9461 39.3344 54.4013 39.2859C53.3114 39.1911 52.2261 39.0568 51.1451 38.902C50.064 38.746 48.9886 38.5565 47.9187 38.3473C47.3839 38.2419 46.8507 38.1272 46.3194 38.0087C45.7871 37.889 45.2617 37.7675 44.7185 37.6314C43.7416 37.3817 42.7586 37.1632 41.7728 36.9756C40.7877 36.784 39.7982 36.6282 38.8073 36.5042C37.8165 36.3767 36.8234 36.2892 35.8303 36.2336C33.8441 36.1223 31.8569 36.1607 29.886 36.3575C29.3931 36.4063 28.9016 36.4668 28.4116 36.5373C27.9212 36.6061 27.4322 36.6854 26.9451 36.7762C25.9715 36.9597 25.0026 37.177 24.0454 37.4429C22.1287 37.9672 20.2516 38.6636 18.4299 39.512C16.6086 40.362 14.8454 41.3688 13.1511 42.5089C11.4576 43.6497 9.83453 44.9257 8.28866 46.3129C6.74244 47.7002 5.27237 49.1976 3.88543 50.7896C3.19112 51.5851 2.51864 52.4052 1.86817 53.2479C1.21922 54.092 0.58768 54.955 0 55.8585Z" fill="#FFCC29"/>
<path d="M0.687042 57.8833C0.902344 57.3863 1.14892 56.9031 1.40434 56.4247C1.65959 55.9462 1.93093 55.4761 2.2114 55.0109C2.77335 54.0812 3.37931 53.1774 4.02047 52.2967C5.30484 50.537 6.73328 48.8738 8.29286 47.3304C9.85245 45.7872 11.5443 44.3643 13.3554 43.0946C14.2606 42.4581 15.1968 41.8639 16.1589 41.3086C17.1228 40.7577 18.1111 40.2434 19.1258 39.7823C21.1524 38.8532 23.2765 38.1201 25.4541 37.594C26.5435 37.3344 27.6448 37.1203 28.7554 36.9665C29.3104 36.8886 29.867 36.8233 30.4251 36.7705C30.9832 36.7193 31.5426 36.6815 32.1019 36.6556C34.3407 36.5512 36.5846 36.6597 38.7976 36.9474C39.9042 37.0911 41.0027 37.2851 42.0914 37.5142C43.1794 37.7462 44.2564 38.0217 45.3216 38.3294C46.3861 38.6411 47.4373 38.9894 48.4758 39.3675C48.9423 39.5392 49.4306 39.7105 49.9142 39.8761C50.3984 40.0415 50.8847 40.2004 51.3717 40.3564C52.3442 40.6713 53.3242 40.9595 54.3071 41.2321C55.29 41.5057 56.2786 41.7504 57.2701 41.98C61.2366 42.8878 65.2757 43.4218 69.3311 43.4581C70.3446 43.465 71.3592 43.4458 72.3726 43.3872C73.3862 43.3337 74.3985 43.2413 75.4088 43.1186C77.4292 42.8705 79.4391 42.4815 81.4225 41.9437C83.4058 41.4059 85.3629 40.7199 87.2737 39.8796C89.1855 39.0409 91.0473 38.0466 92.8566 36.9064C91.3845 38.4751 89.7093 39.8623 87.9165 41.0847C86.1211 42.3049 84.2001 43.3546 82.1952 44.2248C78.1839 45.9665 73.8455 46.982 69.4672 47.3206C68.3719 47.4089 67.2738 47.4501 66.1761 47.4588C65.6268 47.4631 65.0778 47.4543 64.5292 47.4394C63.9806 47.4234 63.4321 47.4005 62.8846 47.3651C61.7896 47.2953 60.6967 47.1951 59.6097 47.0555C59.0658 46.9863 58.523 46.9113 57.9819 46.826C57.4413 46.7403 56.9015 46.6472 56.3633 46.547C55.2866 46.3492 54.2183 46.1127 53.1559 45.8559C52.0937 45.5979 51.0408 45.3073 49.9941 44.9972C49.4711 44.8414 48.9514 44.6767 48.4326 44.5083C47.9137 44.3384 47.4015 44.1674 46.8732 43.9807C45.9228 43.639 44.9644 43.3285 44 43.0483C43.0364 42.764 42.0653 42.5148 41.0902 42.2968C40.1156 42.0758 39.1343 41.8948 38.1508 41.7448C36.1832 41.4456 34.2014 41.2953 32.2212 41.3038C31.7259 41.3059 31.2312 41.3193 30.7368 41.343C30.2418 41.3649 29.7479 41.3973 29.2546 41.4415C28.2685 41.5318 27.2843 41.6561 26.3068 41.83C24.3503 42.1704 22.4181 42.6858 20.527 43.3572C18.6361 44.0304 16.7889 44.8652 14.9983 45.8397C13.2079 46.8149 11.4758 47.9313 9.81028 49.1655C8.14456 50.4001 6.54418 51.7515 5.01811 53.2052C4.2544 53.9313 3.50982 54.6838 2.78572 55.4614C2.06195 56.2404 1.35478 57.0394 0.687042 57.8833Z" fill="#C10023"/>
<path d="M1.37591 59.5239C1.64283 59.0538 1.93994 58.601 2.24478 58.1539C2.54996 57.7064 2.86983 57.2693 3.19837 56.8385C3.85647 55.9773 4.55534 55.1458 5.28655 54.3418C6.75169 52.7359 8.34952 51.2417 10.0647 49.8814C11.7796 48.5211 13.6135 47.2954 15.5497 46.2347C16.5175 45.7035 17.5117 45.2168 18.5273 44.7721C19.5446 44.3317 20.582 43.9305 21.6399 43.5851C23.7536 42.8874 25.9437 42.3953 28.1644 42.115C29.275 41.9785 30.393 41.8881 31.513 41.8593C32.0731 41.8434 32.6336 41.8408 33.1937 41.8501C33.7538 41.8615 34.314 41.8862 34.8729 41.923C37.1093 42.0683 39.3285 42.4264 41.4976 42.9592C42.5822 43.2251 43.6531 43.5405 44.7108 43.8892C45.7677 44.2413 46.8087 44.6348 47.8346 45.0592C48.8593 45.4875 49.8671 45.951 50.8588 46.4427C51.3038 46.6654 51.7713 46.8898 52.2341 47.1081C52.6979 47.3267 53.1643 47.539 53.6318 47.7482C54.5651 48.1696 55.5079 48.5652 56.4558 48.9454C57.4037 49.327 58.3604 49.6803 59.3211 50.0194C63.1676 51.3635 67.125 52.3442 71.1526 52.8324C72.1588 52.9518 73.1695 53.0456 74.183 53.1004C75.1962 53.1602 76.2123 53.1809 77.2297 53.1716C79.2644 53.1498 81.304 52.9874 83.3335 52.6738C85.3619 52.3601 87.3809 51.8958 89.3698 51.2737C91.3599 50.6528 93.3175 49.8721 95.2381 48.9402C93.6067 50.3352 91.7934 51.5279 89.8803 52.5429C87.9652 53.5558 85.9436 54.3855 83.8576 55.027C79.6839 56.3116 75.2633 56.8375 70.8746 56.6863C69.7768 56.6519 68.6808 56.5708 67.5882 56.4573C67.0417 56.4002 66.4973 56.3301 65.9534 56.2544C65.4096 56.1775 64.867 56.0937 64.3267 55.9975C63.2456 55.8061 62.1701 55.5845 61.1044 55.3246C60.5714 55.1952 60.0397 55.0607 59.511 54.9156C58.9824 54.7699 58.4562 54.617 57.932 54.4581C56.8829 54.1413 55.8462 53.7869 54.8177 53.4134C53.7896 53.0385 52.7737 52.6324 51.7667 52.2077C51.2635 51.9946 50.7644 51.7727 50.2669 51.5476C49.7691 51.3211 49.2784 51.0941 48.7733 50.8495C47.8652 50.404 46.9455 49.9887 46.0169 49.6024C45.0895 49.2125 44.1512 48.8569 43.2049 48.5316C42.2597 48.2034 41.3041 47.9142 40.3424 47.6556C38.4187 47.1389 36.4642 46.7687 34.4945 46.5565C34.0023 46.5035 33.5091 46.462 33.0152 46.4304C32.5213 46.3971 32.0267 46.3744 31.5314 46.3632C30.5416 46.343 29.5502 46.3568 28.5596 46.4209C26.5784 46.541 24.603 46.8383 22.6511 47.2952C20.7 47.7541 18.7741 48.3781 16.8899 49.147C15.0062 49.9172 13.1648 50.8338 11.3772 51.8752C9.58944 52.9167 7.85427 54.0818 6.18195 55.3566C5.34529 55.9934 4.5246 56.6583 3.72162 57.3509C2.9183 58.044 2.12963 58.7596 1.37591 59.5239Z" fill="#C47D38"/>
<path d="M113.238 36.0474C112.184 36.0474 111.206 35.9141 110.305 35.6474C109.403 35.368 108.641 34.9934 108.019 34.5236L108.762 32.5998C109.384 33.0442 110.063 33.3871 110.8 33.6284C111.549 33.8696 112.362 33.9903 113.238 33.9903C114.241 33.9903 114.971 33.8252 115.429 33.495C115.886 33.1522 116.114 32.7141 116.114 32.1807C116.114 31.7363 115.949 31.3871 115.619 31.1331C115.302 30.8792 114.749 30.6696 113.962 30.5046L111.867 30.0665C109.479 29.5585 108.286 28.3331 108.286 26.3903C108.286 25.5522 108.508 24.822 108.952 24.1998C109.397 23.5776 110.013 23.095 110.8 22.7522C111.587 22.4093 112.495 22.2379 113.524 22.2379C114.438 22.2379 115.295 22.3776 116.095 22.6569C116.895 22.9236 117.562 23.3046 118.095 23.7998L117.352 25.6284C116.298 24.7395 115.016 24.295 113.505 24.295C112.629 24.295 111.943 24.4792 111.448 24.8474C110.952 25.2157 110.705 25.6982 110.705 26.295C110.705 26.7522 110.857 27.1204 111.162 27.3998C111.467 27.6665 111.987 27.876 112.724 28.0284L114.8 28.4665C116.057 28.7331 116.99 29.1522 117.6 29.7236C118.222 30.295 118.533 31.0569 118.533 32.0093C118.533 32.8093 118.317 33.5141 117.886 34.1236C117.454 34.7331 116.838 35.2093 116.038 35.5522C115.251 35.8823 114.317 36.0474 113.238 36.0474ZM120.397 35.8569V22.4284H122.778V30.5046H122.816L126.569 26.5426H129.445L125.216 30.9998L129.712 35.8569H126.797L122.816 31.7046H122.778V35.8569H120.397ZM131.113 39.2855L132.827 35.476L128.96 26.5426H131.494L134.103 33.0569L136.77 26.5426H139.17L133.57 39.2855H131.113ZM143.539 36.0474C142.434 36.0474 141.615 35.749 141.082 35.1522C140.561 34.5426 140.301 33.6538 140.301 32.4855V22.4284H142.682V32.3712C142.682 33.5141 143.164 34.0855 144.129 34.0855C144.269 34.0855 144.409 34.0792 144.548 34.0665C144.688 34.0538 144.821 34.0284 144.948 33.9903L144.91 35.876C144.453 35.9903 143.996 36.0474 143.539 36.0474ZM146.231 24.5426V22.2188H148.897V24.5426H146.231ZM146.383 35.8569V26.5426H148.764V35.8569H146.383ZM151.238 35.8569V26.5426H153.562V27.9903C153.879 27.4569 154.305 27.0506 154.838 26.7712C155.384 26.4919 155.994 26.3522 156.667 26.3522C158.863 26.3522 159.962 27.6284 159.962 30.1807V35.8569H157.581V30.295C157.581 29.5712 157.441 29.0442 157.162 28.7141C156.895 28.3839 156.476 28.2188 155.905 28.2188C155.206 28.2188 154.648 28.4411 154.229 28.8855C153.822 29.3173 153.619 29.895 153.619 30.6188V35.8569H151.238ZM166.971 36.0474C165.917 36.0474 165.009 35.8506 164.247 35.4569C163.485 35.0633 162.894 34.5046 162.475 33.7807C162.069 33.0569 161.866 32.1998 161.866 31.2093C161.866 30.2442 162.063 29.3998 162.456 28.676C162.863 27.9522 163.415 27.3871 164.114 26.9807C164.825 26.5617 165.631 26.3522 166.533 26.3522C167.853 26.3522 168.894 26.7712 169.656 27.6093C170.431 28.4474 170.818 29.5903 170.818 31.0379V31.7426H164.152C164.329 33.4061 165.282 34.2379 167.009 34.2379C167.529 34.2379 168.05 34.1617 168.571 34.0093C169.091 33.8442 169.568 33.5903 169.999 33.2474L170.666 34.8474C170.221 35.2157 169.663 35.5077 168.99 35.7236C168.317 35.9395 167.644 36.0474 166.971 36.0474ZM166.628 27.9712C165.929 27.9712 165.364 28.1871 164.933 28.6188C164.501 29.0506 164.241 29.6347 164.152 30.3712H168.837C168.787 29.5966 168.571 29.0061 168.19 28.5998C167.821 28.1807 167.301 27.9712 166.628 27.9712ZM178.066 35.8569V22.4284H183.933C185.343 22.4284 186.435 22.7395 187.209 23.3617C187.984 23.9712 188.371 24.822 188.371 25.9141C188.371 26.6379 188.187 27.2601 187.819 27.7807C187.45 28.3014 186.943 28.6823 186.295 28.9236C187.057 29.1395 187.647 29.5204 188.066 30.0665C188.498 30.5998 188.714 31.2792 188.714 32.1046C188.714 33.2982 188.308 34.2252 187.495 34.8855C186.695 35.5331 185.577 35.8569 184.143 35.8569H178.066ZM180.409 28.1236H183.514C185.177 28.1236 186.009 27.4823 186.009 26.1998C186.009 24.9173 185.177 24.276 183.514 24.276H180.409V28.1236ZM180.409 34.0093H183.838C185.514 34.0093 186.352 33.3363 186.352 31.9903C186.352 30.6442 185.514 29.9712 183.838 29.9712H180.409V34.0093ZM194.323 36.0474C192.037 36.0474 190.894 34.7649 190.894 32.1998V26.5426H193.275V32.2379C193.275 32.8982 193.409 33.3871 193.675 33.7046C193.942 34.022 194.368 34.1807 194.952 34.1807C195.587 34.1807 196.107 33.9649 196.514 33.5331C196.92 33.0887 197.123 32.5046 197.123 31.7807V26.5426H199.504V35.8569H197.18V34.4665C196.558 35.5204 195.606 36.0474 194.323 36.0474ZM201.83 24.5426V22.2188H204.496V24.5426H201.83ZM201.982 35.8569V26.5426H204.363V35.8569H201.982ZM210.075 36.0474C208.97 36.0474 208.151 35.749 207.618 35.1522C207.097 34.5426 206.837 33.6538 206.837 32.4855V22.4284H209.218V32.3712C209.218 33.5141 209.701 34.0855 210.666 34.0855C210.805 34.0855 210.945 34.0792 211.085 34.0665C211.224 34.0538 211.358 34.0284 211.485 33.9903L211.447 35.876C210.989 35.9903 210.532 36.0474 210.075 36.0474ZM216.408 36.0474C215.595 36.0474 214.877 35.8506 214.255 35.4569C213.646 35.0633 213.169 34.5046 212.827 33.7807C212.484 33.0442 212.312 32.1807 212.312 31.1903C212.312 30.1871 212.484 29.3299 212.827 28.6188C213.169 27.895 213.646 27.3363 214.255 26.9426C214.877 26.549 215.595 26.3522 216.408 26.3522C217.068 26.3522 217.665 26.4982 218.198 26.7903C218.731 27.0823 219.131 27.4696 219.398 27.9522V22.4284H221.779V35.8569H219.455V34.3141C219.201 34.8474 218.801 35.2728 218.255 35.5903C217.709 35.895 217.093 36.0474 216.408 36.0474ZM217.074 34.2379C217.785 34.2379 218.357 33.9839 218.789 33.476C219.22 32.9553 219.436 32.1934 219.436 31.1903C219.436 30.1744 219.22 29.4188 218.789 28.9236C218.357 28.4157 217.785 28.1617 217.074 28.1617C216.363 28.1617 215.792 28.4157 215.36 28.9236C214.928 29.4188 214.712 30.1744 214.712 31.1903C214.712 32.1934 214.928 32.9553 215.36 33.476C215.792 33.9839 216.363 34.2379 217.074 34.2379ZM228.838 36.0474C227.784 36.0474 226.876 35.8506 226.114 35.4569C225.353 35.0633 224.762 34.5046 224.343 33.7807C223.937 33.0569 223.733 32.1998 223.733 31.2093C223.733 30.2442 223.93 29.3998 224.324 28.676C224.73 27.9522 225.283 27.3871 225.981 26.9807C226.692 26.5617 227.499 26.3522 228.4 26.3522C229.721 26.3522 230.762 26.7712 231.524 27.6093C232.299 28.4474 232.686 29.5903 232.686 31.0379V31.7426H226.019C226.197 33.4061 227.149 34.2379 228.876 34.2379C229.397 34.2379 229.918 34.1617 230.438 34.0093C230.959 33.8442 231.435 33.5903 231.867 33.2474L232.533 34.8474C232.089 35.2157 231.53 35.5077 230.857 35.7236C230.184 35.9395 229.511 36.0474 228.838 36.0474ZM228.495 27.9712C227.797 27.9712 227.232 28.1871 226.8 28.6188C226.368 29.0506 226.108 29.6347 226.019 30.3712H230.705C230.654 29.5966 230.438 29.0061 230.057 28.5998C229.689 28.1807 229.168 27.9712 228.495 27.9712ZM234.571 35.8569V26.5426H236.895V28.1807C237.352 27.076 238.33 26.4665 239.829 26.3522L240.552 26.295L240.705 28.3141L239.333 28.4474C237.771 28.5998 236.99 29.3998 236.99 30.8474V35.8569H234.571ZM241.819 35.8569V34.3141L246.619 28.3331H241.819V26.5426H249.209V28.0855L244.409 34.0665H249.419V35.8569H241.819Z" fill="white"/>
</svg>
