<svg xmlns="http://www.w3.org/2000/svg" width="251" height="60" fill="none"><path fill="#fff" d="M51.513 0a60 60 0 0 1-1.731 2.407c-.59.79-1.195 1.564-1.803 2.335a149 149 0 0 1-4.283 5.156 203 203 0 0 1-7.358 8.022 207 207 0 0 1-5.8 5.777h-.002q-1.056 1.01-2.129 2.003l-.044.041-.387.357a147 147 0 0 1-4.388 3.882c-.748.63-1.5 1.258-2.265 1.87a59 59 0 0 1-2.336 1.797 60 60 0 0 1 1.73-2.408c.589-.79 1.193-1.565 1.801-2.336a149 149 0 0 1 3.994-4.82 199 199 0 0 1 7.65-8.356c2.564-2.649 5.19-5.237 7.898-7.744q.233-.217.467-.43a146 146 0 0 1 4.388-3.883c.747-.63 1.498-1.258 2.263-1.87A59 59 0 0 1 51.513 0"/><path fill="#fff" d="M35.878 0c.799.58 1.57 1.185 2.335 1.8.765.612 1.516 1.24 2.263 1.87q2.235 1.9 4.388 3.882a200 200 0 0 1 8.366 8.176 198 198 0 0 1 7.9 8.644 149 149 0 0 1 3.743 4.53c.608.772 1.212 1.547 1.802 2.337a60 60 0 0 1 1.729 2.408 59 59 0 0 1-2.336-1.797c-.766-.612-1.517-1.24-2.264-1.87a148 148 0 0 1-4.389-3.881 198 198 0 0 1-8.362-8.18 201 201 0 0 1-7.897-8.647 150 150 0 0 1-3.744-4.53c-.608-.771-1.213-1.546-1.803-2.335A60 60 0 0 1 35.88 0M46.428 18.339c0 1.68-1.333 3.04-2.979 3.04-1.644 0-2.977-1.36-2.977-3.04 0-1.678 1.333-3.04 2.977-3.04 1.646 0 2.98 1.362 2.98 3.04"/><path fill="#fff" d="m58.997 23.973-5.523-4.866v-9.26h5.515z"/><path fill="#FFCC29" d="M0 55.859c.169-.516.37-1.02.581-1.521s.438-.995.675-1.485c.475-.978.996-1.936 1.553-2.874a41 41 0 0 1 3.802-5.35 39.4 39.4 0 0 1 4.654-4.698q1.267-1.079 2.629-2.044c.91-.64 1.847-1.246 2.815-1.802a34.9 34.9 0 0 1 12.635-4.345 38 38 0 0 1 6.693-.345c1.115.038 2.227.127 3.331.252a47 47 0 0 1 6.526 1.239c.48.127.982.25 1.478.37a78 78 0 0 0 4.498.933c1.003.179 2.01.329 3.018.464 4.032.527 8.102.675 12.143.327a48 48 0 0 0 6.02-.916 43 43 0 0 0 5.881-1.74 42 42 0 0 0 5.638-2.61 43 43 0 0 0 5.288-3.491c-1.323 1.701-2.864 3.242-4.538 4.629a35 35 0 0 1-5.41 3.67c-3.836 2.114-8.062 3.537-12.391 4.29a46 46 0 0 1-4.906.587q-.821.056-1.644.082a54.405 54.405 0 0 1-6.567-.195 59 59 0 0 1-3.257-.384 66 66 0 0 1-6.427-1.27q-1.466-.375-2.945-.656a44 44 0 0 0-5.943-.742 38 38 0 0 0-5.944.123q-.74.075-1.474.18-.736.103-1.467.24c-.974.183-1.942.4-2.9.666a35.5 35.5 0 0 0-5.615 2.069 39 39 0 0 0-5.279 2.997 45 45 0 0 0-4.862 3.804 52.82 52.82 0 0 0-6.42 6.935A41 41 0 0 0 0 55.858"/><path fill="#C10023" d="M.687 57.883c.215-.497.462-.98.717-1.458q.385-.718.807-1.414a38 38 0 0 1 1.81-2.714 41 41 0 0 1 4.272-4.967 39 39 0 0 1 5.062-4.235 36.013 36.013 0 0 1 5.77-3.312 34.8 34.8 0 0 1 12.977-3.127 38 38 0 0 1 6.696.291c1.106.144 2.205.338 3.293.567a47 47 0 0 1 6.385 1.853 68 68 0 0 0 2.896.99 72 72 0 0 0 5.898 1.623c3.967.908 8.006 1.442 12.061 1.478a47 47 0 0 0 6.078-.34 43 43 0 0 0 6.013-1.174 41.5 41.5 0 0 0 5.852-2.064 42.5 42.5 0 0 0 5.583-2.974c-1.472 1.57-3.148 2.956-4.94 4.179a35 35 0 0 1-5.722 3.14c-4.011 1.742-8.35 2.757-12.728 3.096a45 45 0 0 1-4.938.118 51.363 51.363 0 0 1-4.92-.384 55 55 0 0 1-3.246-.508 59 59 0 0 1-3.207-.691 66 66 0 0 1-6.283-1.875A48 48 0 0 0 44 43.048a45 45 0 0 0-5.85-1.303c-1.967-.3-3.949-.45-5.929-.441q-.743.003-1.484.039-.743.032-1.482.098a35 35 0 0 0-8.728 1.916 39 39 0 0 0-5.529 2.483 44 44 0 0 0-5.188 3.325 51 51 0 0 0-4.792 4.04 52 52 0 0 0-2.232 2.256 40 40 0 0 0-2.099 2.422"/><path fill="#C47D38" d="M1.376 59.524c.267-.47.564-.923.869-1.37q.46-.671.953-1.315a38 38 0 0 1 2.089-2.497 41 41 0 0 1 4.778-4.46 39 39 0 0 1 5.485-3.647 35.852 35.852 0 0 1 6.09-2.65 34.7 34.7 0 0 1 11.554-1.735q.84.017 1.679.073c2.236.145 4.456.503 6.625 1.036 1.084.266 2.155.581 3.213.93 1.057.352 2.098.746 3.124 1.17a52 52 0 0 1 3.024 1.384 78.099 78.099 0 0 0 2.773 1.305 72 72 0 0 0 5.69 2.271c3.846 1.345 7.803 2.325 11.83 2.813a47.5 47.5 0 0 0 6.078.34 43 43 0 0 0 6.103-.498 41.4 41.4 0 0 0 6.037-1.4 42 42 0 0 0 5.868-2.334c-1.631 1.395-3.445 2.588-5.358 3.603a34.7 34.7 0 0 1-6.022 2.484c-4.174 1.285-8.595 1.81-12.983 1.66a46 46 0 0 1-4.922-.433 51.465 51.465 0 0 1-4.849-.93 55 55 0 0 1-3.172-.866 60 60 0 0 1-3.114-1.045 66 66 0 0 1-6.045-2.563 49 49 0 0 0-2.756-1.248 45 45 0 0 0-5.675-1.946 38.4 38.4 0 0 0-5.847-1.1 34 34 0 0 0-1.48-.126 34.963 34.963 0 0 0-4.456-.01c-1.98.121-3.956.418-5.908.875a39 39 0 0 0-5.761 1.852 44 44 0 0 0-5.513 2.728 51 51 0 0 0-5.195 3.482 52 52 0 0 0-2.46 1.994 40 40 0 0 0-2.346 2.173"/><path fill="#fff" d="M113.238 36.047q-1.581 0-2.933-.4-1.353-.419-2.286-1.123l.743-1.924a7.5 7.5 0 0 0 2.038 1.028 7.9 7.9 0 0 0 2.438.362q1.504 0 2.191-.495.685-.514.685-1.314 0-.667-.495-1.048-.476-.38-1.657-.628l-2.095-.438q-3.582-.763-3.581-3.677 0-1.257.666-2.19.667-.933 1.848-1.448 1.18-.514 2.724-.514 1.371 0 2.571.419 1.2.4 2 1.143l-.743 1.828q-1.58-1.333-3.847-1.333-1.314 0-2.057.552-.743.553-.743 1.448 0 .685.457 1.105.457.4 1.562.628l2.076.439q1.885.399 2.8 1.257.933.857.933 2.285 0 1.2-.647 2.115-.648.914-1.848 1.428-1.181.495-2.8.495m7.159-.19V22.428h2.381v8.077h.038l3.753-3.962h2.876L125.216 31l4.496 4.857h-2.915l-3.981-4.152h-.038v4.152zm10.716 3.428 1.714-3.809-3.867-8.933h2.534l2.609 6.514 2.667-6.514h2.4l-5.6 12.743zm12.426-3.238q-1.657 0-2.457-.895-.781-.914-.781-2.666V22.428h2.381v9.943q0 1.715 1.447 1.715.21 0 .419-.02.21-.018.4-.076l-.038 1.886a5.6 5.6 0 0 1-1.371.171m2.692-11.504v-2.324h2.666v2.324zm.152 11.314v-9.314h2.381v9.314zm4.855 0v-9.314h2.324v1.447q.476-.8 1.276-1.219a3.96 3.96 0 0 1 1.829-.419q3.294 0 3.295 3.829v5.676h-2.381v-5.562q0-1.085-.419-1.58-.4-.496-1.257-.496-1.048 0-1.676.666-.61.648-.61 1.734v5.238zm15.733.19q-1.581 0-2.724-.59a4.26 4.26 0 0 1-1.772-1.676q-.609-1.086-.609-2.572 0-1.448.59-2.533a4.43 4.43 0 0 1 1.658-1.695q1.066-.63 2.419-.629 1.98 0 3.123 1.257 1.162 1.257 1.162 3.429v.705h-6.666q.266 2.495 2.857 2.495.78 0 1.562-.229a4.4 4.4 0 0 0 1.428-.762l.667 1.6q-.667.553-1.676.877a6.6 6.6 0 0 1-2.019.323m-.343-8.076q-1.049 0-1.695.648-.648.648-.781 1.752h4.685q-.075-1.162-.647-1.771-.553-.63-1.562-.629m11.438 7.886V22.428h5.867q2.115 0 3.276.934 1.162.915 1.162 2.552 0 1.086-.552 1.867-.553.78-1.524 1.143 1.143.323 1.771 1.143.648.8.648 2.038 0 1.79-1.219 2.78-1.2.972-3.352.972zm2.343-7.733h3.105q2.495 0 2.495-1.924t-2.495-1.924h-3.105zm0 5.885h3.429q2.514 0 2.514-2.019t-2.514-2.019h-3.429zm13.914 2.038q-3.429 0-3.429-3.847v-5.657h2.381v5.695q0 .99.4 1.467.4.476 1.277.476.952 0 1.562-.648.609-.666.609-1.752v-5.238h2.381v9.314h-2.324v-1.39q-.933 1.58-2.857 1.58m7.507-11.504v-2.324h2.666v2.324zm.152 11.314v-9.314h2.381v9.314zm8.093.19q-1.657 0-2.457-.895-.781-.914-.781-2.666V22.428h2.381v9.943q0 1.715 1.448 1.715.209 0 .419-.02.209-.018.4-.076l-.038 1.886a5.7 5.7 0 0 1-1.372.171m6.333 0q-1.22 0-2.153-.59-.914-.59-1.428-1.676-.515-1.105-.515-2.59 0-1.506.515-2.572.514-1.086 1.428-1.676.933-.59 2.153-.59.99 0 1.79.437.8.439 1.2 1.162v-5.524h2.381v13.429h-2.324v-1.543a2.9 2.9 0 0 1-1.2 1.276q-.82.457-1.847.457m.666-1.81q1.067 0 1.715-.761.647-.78.647-2.286 0-1.524-.647-2.266-.648-.762-1.715-.762-1.066 0-1.714.762-.648.742-.648 2.266 0 1.505.648 2.286.648.762 1.714.762m11.764 1.81q-1.581 0-2.724-.59a4.26 4.26 0 0 1-1.771-1.676q-.61-1.086-.61-2.572 0-1.448.591-2.533a4.43 4.43 0 0 1 1.657-1.695q1.067-.63 2.419-.629 1.981 0 3.124 1.257 1.162 1.257 1.162 3.429v.705h-6.667q.267 2.495 2.857 2.495.782 0 1.562-.229a4.4 4.4 0 0 0 1.429-.762l.666 1.6q-.666.553-1.676.877a6.6 6.6 0 0 1-2.019.323m-.343-8.076q-1.047 0-1.695.648t-.781 1.752h4.686q-.076-1.162-.648-1.771-.552-.63-1.562-.629m6.076 7.886v-9.314h2.324v1.638q.686-1.658 2.934-1.829l.723-.057.153 2.02-1.372.132q-2.343.23-2.343 2.4v5.01zm7.248 0v-1.543l4.8-5.98h-4.8v-1.791h7.39v1.543l-4.8 5.98h5.01v1.79z"/></svg>