<svg xmlns="http://www.w3.org/2000/svg" width="40" height="41" fill="none"><rect width="40" height="40" y=".524" fill="#FFCC29" rx="5"/><path fill="#C10023" d="M19.75 16.532c2.46 0 4.492 2.031 4.492 4.492 0 2.5-2.031 4.492-4.492 4.492a4.47 4.47 0 0 1-4.492-4.492 4.493 4.493 0 0 1 4.492-4.492m0 7.422c1.602 0 2.89-1.29 2.89-2.93a2.884 2.884 0 0 0-2.89-2.89c-1.64 0-2.93 1.288-2.93 2.89 0 1.64 1.328 2.93 2.93 2.93m5.703-7.579a1.05 1.05 0 0 0-1.055-1.054 1.05 1.05 0 0 0-1.054 1.054 1.05 1.05 0 0 0 1.054 1.055 1.05 1.05 0 0 0 1.055-1.055m2.969 1.055c.078 1.445.078 5.781 0 7.227-.078 1.406-.39 2.617-1.406 3.672-1.016 1.015-2.266 1.328-3.672 1.406-1.446.078-5.782.078-7.227 0-1.406-.078-2.617-.39-3.672-1.406-1.015-1.055-1.328-2.266-1.406-3.672-.078-1.446-.078-5.782 0-7.227.078-1.406.39-2.656 1.406-3.672 1.055-1.015 2.266-1.328 3.672-1.406 1.445-.078 5.781-.078 7.227 0 1.406.078 2.656.39 3.672 1.406 1.015 1.016 1.328 2.266 1.406 3.672m-1.875 8.75c.469-1.133.351-3.867.351-5.156 0-1.25.118-3.984-.351-5.156-.313-.742-.899-1.367-1.64-1.64-1.173-.47-3.907-.352-5.157-.352-1.29 0-4.023-.118-5.156.351a3.01 3.01 0 0 0-1.68 1.64c-.469 1.173-.351 3.907-.351 5.157 0 1.289-.118 4.023.351 5.156a2.96 2.96 0 0 0 1.68 1.68c1.133.469 3.867.351 5.156.351 1.25 0 3.984.118 5.156-.351.742-.313 1.367-.899 1.64-1.68"/></svg>