<svg width="19" height="18" viewBox="0 0 19 18" fill="none" xmlns="http://www.w3.org/2000/svg">
<path d="M9.75 4.53174C12.2109 4.53174 14.2422 6.56299 14.2422 9.02393C14.2422 11.5239 12.2109 13.5161 9.75 13.5161C7.25 13.5161 5.25781 11.5239 5.25781 9.02393C5.25781 6.56299 7.25 4.53174 9.75 4.53174ZM9.75 11.9536C11.3516 11.9536 12.6406 10.6646 12.6406 9.02393C12.6406 7.42236 11.3516 6.1333 9.75 6.1333C8.10938 6.1333 6.82031 7.42236 6.82031 9.02393C6.82031 10.6646 8.14844 11.9536 9.75 11.9536ZM15.4531 4.37549C15.4531 3.78955 14.9844 3.3208 14.3984 3.3208C13.8125 3.3208 13.3438 3.78955 13.3438 4.37549C13.3438 4.96143 13.8125 5.43018 14.3984 5.43018C14.9844 5.43018 15.4531 4.96143 15.4531 4.37549ZM18.4219 5.43018C18.5 6.87549 18.5 11.2114 18.4219 12.6567C18.3438 14.063 18.0312 15.2739 17.0156 16.3286C16 17.3442 14.75 17.6567 13.3438 17.7349C11.8984 17.813 7.5625 17.813 6.11719 17.7349C4.71094 17.6567 3.5 17.3442 2.44531 16.3286C1.42969 15.2739 1.11719 14.063 1.03906 12.6567C0.960938 11.2114 0.960938 6.87549 1.03906 5.43018C1.11719 4.02393 1.42969 2.77393 2.44531 1.7583C3.5 0.742676 4.71094 0.430176 6.11719 0.352051C7.5625 0.273926 11.8984 0.273926 13.3438 0.352051C14.75 0.430176 16 0.742676 17.0156 1.7583C18.0312 2.77393 18.3438 4.02393 18.4219 5.43018ZM16.5469 14.1802C17.0156 13.0474 16.8984 10.313 16.8984 9.02393C16.8984 7.77393 17.0156 5.03955 16.5469 3.86768C16.2344 3.12549 15.6484 2.50049 14.9062 2.22705C13.7344 1.7583 11 1.87549 9.75 1.87549C8.46094 1.87549 5.72656 1.7583 4.59375 2.22705C3.8125 2.53955 3.22656 3.12549 2.91406 3.86768C2.44531 5.03955 2.5625 7.77393 2.5625 9.02393C2.5625 10.313 2.44531 13.0474 2.91406 14.1802C3.22656 14.9614 3.8125 15.5474 4.59375 15.8599C5.72656 16.3286 8.46094 16.2114 9.75 16.2114C11 16.2114 13.7344 16.3286 14.9062 15.8599C15.6484 15.5474 16.2734 14.9614 16.5469 14.1802Z" fill="#C10023"/>
</svg>
