<svg width="18" height="18" viewBox="0 0 18 18" fill="none" xmlns="http://www.w3.org/2000/svg">
<path d="M16.25 0.273926C16.9141 0.273926 17.5 0.859863 17.5 1.56299V16.5239C17.5 17.2271 16.9141 17.7739 16.25 17.7739H1.21094C0.546875 17.7739 0 17.2271 0 16.5239V1.56299C0 0.859863 0.546875 0.273926 1.21094 0.273926H16.25ZM5.27344 15.2739V6.95361H2.69531V15.2739H5.27344ZM3.98438 5.78174C4.80469 5.78174 5.46875 5.11768 5.46875 4.29736C5.46875 3.47705 4.80469 2.77393 3.98438 2.77393C3.125 2.77393 2.46094 3.47705 2.46094 4.29736C2.46094 5.11768 3.125 5.78174 3.98438 5.78174ZM15 15.2739V10.7036C15 8.47705 14.4922 6.71924 11.875 6.71924C10.625 6.71924 9.76562 7.42236 9.41406 8.08643H9.375V6.95361H6.91406V15.2739H9.49219V11.1724C9.49219 10.0786 9.6875 9.02393 11.0547 9.02393C12.3828 9.02393 12.3828 10.2739 12.3828 11.2114V15.2739H15Z" fill="#C10023"/>
</svg>
