<svg xmlns="http://www.w3.org/2000/svg" width="40" height="41" fill="none"><rect width="40" height="40" y=".524" fill="#FFCC29" rx="5"/><path fill="#C10023" d="M27.25 12.274c.664 0 1.25.586 1.25 1.289v14.96c0 .704-.586 1.25-1.25 1.25H12.21c-.663 0-1.21-.546-1.21-1.25v-14.96c0-.703.547-1.29 1.21-1.29zm-10.977 15v-8.32h-2.578v8.32zm-1.289-9.492c.82 0 1.485-.664 1.485-1.485 0-.82-.664-1.523-1.485-1.523-.859 0-1.523.703-1.523 1.523s.664 1.485 1.523 1.485M26 27.274v-4.57c0-2.227-.508-3.985-3.125-3.985-1.25 0-2.11.703-2.46 1.367h-.04v-1.132h-2.46v8.32h2.577v-4.102c0-1.093.195-2.148 1.563-2.148 1.328 0 1.328 1.25 1.328 2.187v4.063z"/></svg>