<svg xmlns="http://www.w3.org/2000/svg" width="80" height="80" fill="none"><rect width="80" height="80" fill="#FFCC29" rx="10"/><path fill="#C10023" d="M49.64 46.97a1.5 1.5 0 0 0-2 .64 1.52 1.52 0 0 0 .66 2c1.76.9 2.76 2 2.76 3.06 0 2.26-4.72 4.78-11.04 4.78s-11.06-2.5-11.06-4.7c0-1.04 1-2.16 2.76-3.06a1.5 1.5 0 1 0-1.36-2.66A6.78 6.78 0 0 0 26 52.75c0 4.44 6 7.78 14 7.78s14-3.34 14-7.78a6.78 6.78 0 0 0-4.36-5.78"/><path fill="#C10023" fill-rule="evenodd" d="M38.5 53.63v-8.64c-6.586-.794-11.415-6.58-11.017-13.201S33.366 20 40 20s12.12 5.167 12.517 11.789S48.088 44.196 41.5 44.99v8.64a1.5 1.5 0 0 1-3 0m10.348-24.748a9.56 9.56 0 1 0-17.657 7.335 9.56 9.56 0 0 0 17.657-7.335" clip-rule="evenodd"/><path fill="#C10023" d="M35.18 34.75a1.5 1.5 0 0 0 1.5-1.5 4.16 4.16 0 0 1 4.16-4.16 1.5 1.5 0 0 0 0-3 7.18 7.18 0 0 0-7.16 7.2 1.48 1.48 0 0 0 1.5 1.46"/></svg>