<svg xmlns="http://www.w3.org/2000/svg" width="80" height="50" fill="none"><path fill="#000" d="M43.27 0c-.467.691-.957 1.36-1.454 2.022a94 94 0 0 1-1.513 1.961 125 125 0 0 1-3.599 4.331c-2 2.307-4.065 4.548-6.18 6.739a174 174 0 0 1-4.873 4.853q-.888.848-1.789 1.682l-.037.035-.325.3a124 124 0 0 1-3.686 3.26c-.628.53-1.26 1.057-1.902 1.571a49 49 0 0 1-1.963 1.51c.467-.692.956-1.361 1.453-2.023a95 95 0 0 1 1.513-1.963 125 125 0 0 1 3.355-4.049 167 167 0 0 1 6.426-7.018 170 170 0 0 1 7.027-6.867 123 123 0 0 1 3.685-3.261 95 95 0 0 1 1.902-1.571A49 49 0 0 1 43.27 0"/><path fill="#000" d="M30.138 0c.67.487 1.319.995 1.96 1.511A95 95 0 0 1 34 3.083a125 125 0 0 1 3.685 3.26 168 168 0 0 1 7.028 6.868 167 167 0 0 1 6.636 7.262 125 125 0 0 1 3.145 3.805c.51.648 1.017 1.3 1.513 1.963.496.662.986 1.331 1.452 2.023a49 49 0 0 1-1.962-1.51 95 95 0 0 1-1.902-1.57 124 124 0 0 1-3.686-3.261 166 166 0 0 1-7.025-6.87 169 169 0 0 1-6.633-7.265 126 126 0 0 1-3.145-3.805 94 94 0 0 1-1.514-1.962A50 50 0 0 1 30.138 0M39 15.405c0 1.41-1.12 2.554-2.503 2.554-1.381 0-2.5-1.143-2.5-2.554s1.119-2.553 2.5-2.553c1.383 0 2.503 1.143 2.503 2.553"/><path fill="#000" d="m49.557 20.137-4.64-4.087V8.27h4.633z"/><path fill="#FFCC29" d="M0 46.921c.142-.433.311-.856.488-1.277q.267-.63.567-1.247.6-1.233 1.305-2.415a34.6 34.6 0 0 1 3.193-4.494 33 33 0 0 1 3.91-3.946 30.367 30.367 0 0 1 4.573-3.23 29.4 29.4 0 0 1 10.613-3.65 32 32 0 0 1 5.622-.29c.937.032 1.87.107 2.798.211a39 39 0 0 1 5.482 1.041 56 56 0 0 0 2.497.597 61 61 0 0 0 5.058.887c3.387.443 6.806.568 10.2.275a40 40 0 0 0 5.057-.769 36 36 0 0 0 4.94-1.462 35 35 0 0 0 4.736-2.193 36 36 0 0 0 4.442-2.932c-1.111 1.43-2.406 2.723-3.812 3.889a29.4 29.4 0 0 1-4.545 3.082c-3.221 1.776-6.772 2.972-10.408 3.604a38 38 0 0 1-4.121.493q-.69.046-1.381.07a43 43 0 0 1-2.763.002A47 47 0 0 1 45.697 33a50 50 0 0 1-2.735-.322 55 55 0 0 1-5.398-1.068q-1.232-.315-2.475-.55a37 37 0 0 0-4.991-.624 32 32 0 0 0-4.994.104q-.621.062-1.238.151-.618.087-1.232.201a29.819 29.819 0 0 0-7.153 2.298 33 33 0 0 0-4.434 2.517 37.5 37.5 0 0 0-4.085 3.196 44.399 44.399 0 0 0-5.393 5.825A34 34 0 0 0 0 46.921"/><path fill="#C10023" d="M.577 48.622c.181-.417.388-.823.603-1.225q.323-.602.678-1.188.709-1.17 1.52-2.28a34.4 34.4 0 0 1 3.588-4.171 33 33 0 0 1 4.253-3.558 30.275 30.275 0 0 1 4.847-2.782 29.3 29.3 0 0 1 10.9-2.627c1.88-.088 3.765.003 5.624.245.93.12 1.852.284 2.767.476a39 39 0 0 1 5.363 1.557 57 57 0 0 0 2.432.83 61 61 0 0 0 4.955 1.364c3.332.763 6.725 1.212 10.131 1.242a40 40 0 0 0 5.105-.285 36 36 0 0 0 5.052-.987 35 35 0 0 0 4.915-1.734A36 36 0 0 0 78 31.002c-1.237 1.317-2.644 2.483-4.15 3.51a29.3 29.3 0 0 1-4.806 2.637c-3.37 1.463-7.014 2.316-10.691 2.6a38 38 0 0 1-4.148.1q-.692-.018-1.382-.062a43 43 0 0 1-2.75-.26 47 47 0 0 1-2.728-.427 50 50 0 0 1-2.694-.58 55 55 0 0 1-5.278-1.576 41 41 0 0 0-2.413-.783 38 38 0 0 0-4.913-1.095 32 32 0 0 0-4.981-.37 29 29 0 0 0-1.247.032q-.623.028-1.245.083a29.5 29.5 0 0 0-7.331 1.61 32.6 32.6 0 0 0-4.644 2.085 37 37 0 0 0-4.358 2.793 43 43 0 0 0-4.026 3.394 44 44 0 0 0-1.875 1.895 34 34 0 0 0-1.763 2.034"/><path fill="#C47D38" d="M1.156 50c.224-.395.474-.775.73-1.15q.386-.564.8-1.106a32 32 0 0 1 1.755-2.097A34 34 0 0 1 8.454 41.9a32.7 32.7 0 0 1 4.608-3.063 30.117 30.117 0 0 1 5.116-2.226 29.2 29.2 0 0 1 11.115-1.396c1.879.122 3.743.423 5.565.87.911.224 1.81.489 2.7.782a39.6 39.6 0 0 1 5.163 2.145 56 56 0 0 0 2.33 1.096 61 61 0 0 0 4.779 1.908c3.23 1.13 6.555 1.953 9.938 2.363a40 40 0 0 0 5.105.285A36 36 0 0 0 70 44.246c1.704-.264 3.4-.654 5.07-1.176A35.6 35.6 0 0 0 80 41.11c-1.37 1.172-2.894 2.173-4.5 3.026a29 29 0 0 1-5.06 2.087c-3.505 1.079-7.219 1.52-10.905 1.394a38 38 0 0 1-4.134-.363 43.336 43.336 0 0 1-4.073-.781 46 46 0 0 1-2.665-.728 50 50 0 0 1-2.616-.878 56 56 0 0 1-5.077-2.153 41 41 0 0 0-2.316-1.048 38 38 0 0 0-4.766-1.635 32 32 0 0 0-4.913-.923q-.62-.067-1.242-.106-.622-.043-1.247-.057a29.4 29.4 0 0 0-7.46.783c-1.638.385-3.256.91-4.838 1.555a37 37 0 0 0-4.631 2.292 43.556 43.556 0 0 0-6.43 4.6A33 33 0 0 0 1.155 50"/></svg>