<svg xmlns="http://www.w3.org/2000/svg" width="14" height="17" fill="none"><path fill="#fff" d="M9.67 1.896C9.03 1.181 8.133.788 7.144.788c-.995 0-1.895.391-2.534 1.102-.646.718-.96 1.695-.886 2.749.146 2.08 1.68 3.772 3.42 3.772s3.27-1.691 3.42-3.771c.074-1.045-.242-2.02-.892-2.744m3.278 14.14H1.337a1 1 0 0 1-.44-.097 1 1 0 0 1-.358-.282 1.23 1.23 0 0 1-.237-.991c.278-1.594 1.147-2.932 2.513-3.872C4.028 9.96 5.565 9.5 7.143 9.5s3.114.46 4.328 1.293c1.365.94 2.234 2.278 2.513 3.871a1.23 1.23 0 0 1-.237.991c-.098.12-.22.217-.358.283a1 1 0 0 1-.44.096"/></svg>