<svg width="46" height="44" viewBox="0 0 46 44" fill="none" xmlns="http://www.w3.org/2000/svg">
<path d="M9.239 10.6782C8.43392 10.6782 7.78127 11.3309 7.78127 12.136C7.78127 12.941 8.43392 13.5937 9.239 13.5937V10.6782ZM42.0825 13.5937C42.8876 13.5937 43.5402 12.941 43.5402 12.136C43.5402 11.3309 42.8876 10.6782 42.0825 10.6782V13.5937ZM12.6215 10.9189C11.938 11.3442 11.7287 12.2431 12.154 12.9267C12.5793 13.6102 13.4783 13.8196 14.1618 13.3942L12.6215 10.9189ZM30.41 1.56703L29.6412 0.328484L29.6398 0.329347L30.41 1.56703ZM31.3245 1.78021L30.086 2.54897L30.0869 2.55035L31.3245 1.78021ZM36.3634 12.6374C36.7887 13.3209 37.6876 13.5302 38.3712 13.1049C39.0547 12.6796 39.2641 11.7806 38.8387 11.0971L36.3634 12.6374ZM44.5269 31.6964V33.1541H45.9847V31.6964H44.5269ZM44.5269 22.128H45.9847V20.6703H44.5269V22.128ZM35.2784 8.49059H42.507V5.57514H35.2784V8.49059ZM42.507 8.49059C41.8193 8.49059 41.2616 7.9329 41.2616 7.24516H44.1771C44.1771 6.32274 43.4295 5.57514 42.507 5.57514V8.49059ZM41.2616 7.24516V21.4902H44.1771V7.24516H41.2616ZM41.2625 31.5907V41.3714H44.178V31.5907H41.2625ZM41.2625 41.3714C41.2625 40.6836 41.8202 40.1259 42.508 40.1259V43.0414C43.4304 43.0414 44.178 42.2938 44.178 41.3714H41.2625ZM42.508 40.1259H2.10975V43.0414H42.508V40.1259ZM2.10975 40.1259C2.79749 40.1259 3.35519 40.6836 3.35519 41.3714H0.439735C0.439735 42.2938 1.18733 43.0414 2.10975 43.0414V40.1259ZM3.35519 41.3714V7.24608H0.439735V41.3714H3.35519ZM3.35519 7.24608C3.35519 7.93382 2.79749 8.49151 2.10975 8.49151V5.57606C1.18733 5.57606 0.439735 6.32365 0.439735 7.24608H3.35519ZM2.10975 8.49151H21.3638V5.57606H2.10975V8.49151ZM9.239 13.5937H42.0825V10.6782H9.239V13.5937ZM14.1618 13.3942L31.1801 2.80471L29.6398 0.329347L12.6215 10.9189L14.1618 13.3942ZM31.1787 2.80557C30.8093 3.03488 30.3189 2.92414 30.086 2.54897L32.5631 1.01146C31.9433 0.012849 30.6341 -0.287784 29.6412 0.328484L31.1787 2.80557ZM30.0869 2.55035L36.3634 12.6374L38.8387 11.0971L32.5622 1.01008L30.0869 2.55035ZM44.5269 30.2386H33.2584V33.1541H44.5269V30.2386ZM33.2584 30.2386C31.4211 30.2386 29.932 28.7496 29.932 26.9122H27.0165C27.0165 30.3597 29.8109 33.1541 33.2584 33.1541V30.2386ZM29.932 26.9122C29.932 25.0748 31.4211 23.5857 33.2584 23.5857V20.6703C29.8109 20.6703 27.0165 23.4646 27.0165 26.9122H29.932ZM33.2584 23.5857H44.5269V20.6703H33.2584V23.5857ZM43.0692 22.128V31.6964H45.9847V22.128H43.0692Z" fill="#FFCC29"/>
<circle cx="34.2495" cy="26.9915" r="1.46997" fill="#FFCC29"/>
</svg>
