<svg xmlns="http://www.w3.org/2000/svg" width="48" height="32" fill="none"><path fill="#C10023" d="M19.564 4.892A10.63 10.63 0 0 0 14.327.667a10.6 10.6 0 0 0-6.72-.229 10.62 10.62 0 0 0-5.511 3.858A10.65 10.65 0 0 0 0 10.696c.001 1.907.514 3.78 1.485 5.422a10.65 10.65 0 0 0 4.033 3.91 10.62 10.62 0 0 0 10.824-.346c-.836 2.486-2.393 5.139-4.958 7.798a2.67 2.67 0 0 0 1.96 4.52 2.66 2.66 0 0 0 1.868-.813c9.483-9.843 8.251-20.543 4.352-26.282zm25.524 0A10.63 10.63 0 0 0 39.851.667a10.6 10.6 0 0 0-6.72-.229 10.63 10.63 0 0 0-5.511 3.858 10.65 10.65 0 0 0-2.096 6.4c.001 1.907.514 3.78 1.485 5.422a10.65 10.65 0 0 0 4.033 3.91 10.62 10.62 0 0 0 10.824-.346c-.836 2.486-2.393 5.139-4.958 7.798a2.67 2.67 0 0 0 .064 3.77 2.66 2.66 0 0 0 3.764-.063c9.483-9.843 8.25-20.543 4.352-26.282z"/></svg>