<svg xmlns="http://www.w3.org/2000/svg" width="88" height="73" fill="none"><g fill="#C10023" opacity=".4"><path d="M19.97 28.582c1.131-7.114 10.024-14.714 16.977-14.875.485 0 .97-.162 1.293-.485.324-.162.647-.324.809-.809 2.425-4.527 1.132-8.084-2.91-10.995-4.69-3.395-12.128 0-15.846 3.072C10.915 12.251 1.375 25.672 1.86 38.445.243 47.015.566 56.231 2.992 63.831c1.617 4.85 6.306 7.276 11.156 7.6s14.876 1.778 19.242-1.132c4.365-2.91 4.689-8.57 5.174-13.42.485-5.336 1.94-15.361-2.587-19.565-4.528-4.043-17.463.323-16.008-8.732M67.388 28.582c1.131-7.115 10.024-14.714 16.977-14.876.485 0 .97-.162 1.294-.485.323-.162.646-.323.808-.808 2.426-4.528 1.132-8.085-2.91-10.995-4.69-3.396-12.127 0-15.846 3.072-9.378 7.76-18.918 21.181-18.433 33.955-1.617 8.57-1.294 17.786 1.132 25.385 1.617 4.851 6.306 7.276 11.157 7.6 4.85.323 14.875 1.778 19.24-1.132 4.366-2.91 4.69-8.57 5.175-13.42.485-5.336 1.94-15.361-2.587-19.565-4.527-4.042-17.624.323-16.007-8.731"/></g></svg>