<svg xmlns="http://www.w3.org/2000/svg" width="49" height="32" fill="none"><path fill="#C10023" d="M28.49 27.108a10.64 10.64 0 0 0 11.98 4.454 10.644 10.644 0 0 0 7.622-10.257 10.653 10.653 0 0 0-10.998-10.643 10.66 10.66 0 0 0-5.375 1.656c.838-2.486 2.398-5.139 4.968-7.798A2.667 2.667 0 1 0 32.85.813c-9.5 9.843-8.267 20.543-4.36 26.282zm-25.573 0a10.644 10.644 0 0 0 11.98 4.454 10.645 10.645 0 0 0 7.622-10.257 10.65 10.65 0 0 0-5.528-9.334 10.66 10.66 0 0 0-10.845.347c.838-2.486 2.398-5.139 4.968-7.798A2.667 2.667 0 1 0 7.278.813c-9.5 9.843-8.267 20.543-4.36 26.282z"/></svg>