<svg xmlns="http://www.w3.org/2000/svg" width="24" height="24" fill="none"><path fill="#fff" d="M1.5 3A1.5 1.5 0 0 1 3 1.5h3A1.5 1.5 0 0 1 7.5 3v3A1.5 1.5 0 0 1 6 7.5H3A1.5 1.5 0 0 1 1.5 6zM9 3a1.5 1.5 0 0 1 1.5-1.5h3A1.5 1.5 0 0 1 15 3v3a1.5 1.5 0 0 1-1.5 1.5h-3A1.5 1.5 0 0 1 9 6zm7.5 0A1.5 1.5 0 0 1 18 1.5h3A1.5 1.5 0 0 1 22.5 3v3A1.5 1.5 0 0 1 21 7.5h-3A1.5 1.5 0 0 1 16.5 6zm-15 7.5A1.5 1.5 0 0 1 3 9h3a1.5 1.5 0 0 1 1.5 1.5v3A1.5 1.5 0 0 1 6 15H3a1.5 1.5 0 0 1-1.5-1.5zm7.5 0A1.5 1.5 0 0 1 10.5 9h3a1.5 1.5 0 0 1 1.5 1.5v3a1.5 1.5 0 0 1-1.5 1.5h-3A1.5 1.5 0 0 1 9 13.5zm7.5 0A1.5 1.5 0 0 1 18 9h3a1.5 1.5 0 0 1 1.5 1.5v3A1.5 1.5 0 0 1 21 15h-3a1.5 1.5 0 0 1-1.5-1.5zM1.5 18A1.5 1.5 0 0 1 3 16.5h3A1.5 1.5 0 0 1 7.5 18v3A1.5 1.5 0 0 1 6 22.5H3A1.5 1.5 0 0 1 1.5 21zM9 18a1.5 1.5 0 0 1 1.5-1.5h3A1.5 1.5 0 0 1 15 18v3a1.5 1.5 0 0 1-1.5 1.5h-3A1.5 1.5 0 0 1 9 21zm7.5 0a1.5 1.5 0 0 1 1.5-1.5h3a1.5 1.5 0 0 1 1.5 1.5v3a1.5 1.5 0 0 1-1.5 1.5h-3a1.5 1.5 0 0 1-1.5-1.5z"/></svg>