<svg xmlns="http://www.w3.org/2000/svg" width="18" height="19" fill="none"><path fill="#FFCC29" d="m10.831 3.932.489 1.481c.22.685.857 1.151 1.577 1.155h1.54a1.658 1.658 0 0 1 .977 3.006l-1.266.918a1.67 1.67 0 0 0-.607 1.858l.489 1.481a1.659 1.659 0 0 1-2.554 1.88l-1.244-.925a1.67 1.67 0 0 0-1.955 0l-1.244.926a1.659 1.659 0 0 1-2.554-1.859l.488-1.48a1.67 1.67 0 0 0-.607-1.859l-1.295-.933a1.658 1.658 0 0 1 1.007-3.013h1.54a1.67 1.67 0 0 0 1.577-1.14l.488-1.481a1.658 1.658 0 0 1 3.154-.015"/></svg>