<svg xmlns="http://www.w3.org/2000/svg" width="332" height="50" fill="none"><rect width="332" height="50" fill="#fff" rx="6"/><path fill="#FFCC29" d="M282 0h44a6 6 0 0 1 6 6v38a6 6 0 0 1-6 6h-44z"/><path stroke="#D6D6D6" d="M282 0h44a6 6 0 0 1 6 6v38a6 6 0 0 1-6 6h-44z"/><path fill="#000" fill-rule="evenodd" d="m309.233 32 5.657-5.571a1.3 1.3 0 0 0 0-1.857L309.233 19l-1.885 1.858 3.38 3.329H300v2.626h10.728l-3.38 3.33z" clip-rule="evenodd"/><path fill="#474747" d="M21.544 30.144q-2.72 0-4.144-1.536t-1.424-4.24q0-1.792.64-3.088a4.64 4.64 0 0 1 1.84-2q1.2-.704 2.896-.704 1.2 0 2.208.368a4.6 4.6 0 0 1 1.712 1.04l-.512 1.056q-.768-.672-1.584-.976t-1.84-.304q-1.92 0-2.944 1.216-1.024 1.2-1.024 3.392 0 2.24 1.056 3.424 1.056 1.185 3.152 1.184 1.36 0 2.608-.464v-3.344H21.32v-1.04h4v5.216q-.448.24-1.088.416a10 10 0 0 1-1.328.272q-.705.112-1.36.112m9.785 0q-1.84 0-2.912-1.072-1.071-1.088-1.072-2.944 0-1.2.48-2.112.48-.928 1.312-1.424.849-.512 1.952-.512 1.584 0 2.48 1.024.897 1.008.896 2.784v.496H28.61q.064 1.328.768 2.032.705.688 1.952.688.705 0 1.344-.208.64-.225 1.216-.72l.448.912q-.528.495-1.344.784a5.2 5.2 0 0 1-1.664.272m-.208-7.104q-1.104 0-1.744.688t-.752 1.808h4.72q-.048-1.185-.624-1.84-.56-.656-1.6-.656m8.34 7.104q-1.375 0-2.064-.72-.688-.736-.688-2.112v-4.08h-1.52v-1.008h1.52V19.84h1.296v2.384h2.464v1.008h-2.464v3.952q0 .912.384 1.392.384.465 1.248.464.255 0 .512-.064.255-.064.464-.128l.224.992a2.6 2.6 0 0 1-.608.208 3.3 3.3 0 0 1-.768.096m6.583 2.736V22.224h1.264v1.392q.352-.72 1.04-1.12.705-.416 1.632-.416 1.04 0 1.808.496.785.48 1.2 1.392.432.896.432 2.144 0 1.232-.432 2.144a3.2 3.2 0 0 1-1.2 1.392q-.767.495-1.808.496-.895 0-1.6-.4a2.48 2.48 0 0 1-1.04-1.104v4.24zm3.664-3.776q1.089 0 1.744-.768.656-.784.656-2.224 0-1.455-.656-2.224-.655-.768-1.744-.768-1.087 0-1.744.768-.656.768-.656 2.224 0 1.44.656 2.224.657.768 1.744.768m5.664.896v-7.776h1.264v1.392q.624-1.408 2.56-1.552l.464-.048.096 1.12-.816.096q-1.104.096-1.68.704-.576.593-.576 1.632V30zm8.873.144q-1.137 0-1.968-.496a3.4 3.4 0 0 1-1.296-1.392q-.448-.912-.448-2.144 0-1.231.448-2.128a3.4 3.4 0 0 1 1.296-1.408q.831-.495 1.968-.496 1.12 0 1.952.496.847.495 1.296 1.408.464.896.464 2.128t-.464 2.144a3.27 3.27 0 0 1-1.296 1.392q-.833.495-1.952.496m0-1.04q1.087 0 1.744-.768.656-.784.656-2.224 0-1.455-.656-2.224-.656-.768-1.744-.768-1.104 0-1.76.768-.64.768-.64 2.224 0 1.44.64 2.224.656.768 1.76.768m8.618 1.04q-1.039 0-1.823-.496-.77-.496-1.2-1.392-.416-.912-.416-2.144 0-1.248.415-2.144.433-.912 1.2-1.392.784-.495 1.825-.496.911 0 1.6.4.704.4 1.04 1.104V18.72h1.295V30h-1.264v-1.424a2.53 2.53 0 0 1-1.04 1.152q-.703.416-1.632.416m.272-1.04q1.089 0 1.744-.768.656-.784.656-2.224 0-1.455-.656-2.224-.655-.768-1.744-.768-1.103 0-1.76.768-.64.768-.64 2.224 0 1.44.64 2.224.657.768 1.76.768m8.849 1.04q-2.8 0-2.8-3.088v-4.832h1.296v4.816q0 1.04.416 1.536.432.495 1.344.496.992 0 1.616-.656.624-.672.624-1.776v-4.416h1.296V30h-1.264v-1.312q-.368.704-1.04 1.088a3 3 0 0 1-1.488.368m9.512 0q-1.167 0-2.016-.496a3.46 3.46 0 0 1-1.312-1.424q-.448-.929-.448-2.16 0-1.856 1.008-2.912 1.008-1.072 2.768-1.072.72 0 1.424.256.705.255 1.168.72L93.64 24a2.9 2.9 0 0 0-1.024-.656 2.9 2.9 0 0 0-1.04-.208q-1.215 0-1.872.768-.656.752-.656 2.176 0 1.392.656 2.208.657.8 1.872.8.497 0 1.04-.208a2.85 2.85 0 0 0 1.024-.672l.448.944q-.464.465-1.184.736-.703.255-1.408.256m7.23 0q-1.376 0-2.063-.72-.688-.736-.688-2.112v-4.08h-1.52v-1.008h1.52V19.84h1.296v2.384h2.464v1.008H97.27v3.952q0 .912.384 1.392.384.465 1.248.464.255 0 .512-.064.255-.064.464-.128l.224.992a2.6 2.6 0 0 1-.608.208 3.3 3.3 0 0 1-.768.096m9.336 0q-2.8 0-2.8-3.088v-4.832h1.296v4.816q0 1.04.416 1.536.432.495 1.344.496.992 0 1.616-.656.624-.672.624-1.776v-4.416h1.296V30h-1.264v-1.312q-.368.704-1.04 1.088a3 3 0 0 1-1.488.368m6.217 2.736V22.224h1.264v1.392a2.57 2.57 0 0 1 1.04-1.12q.703-.416 1.632-.416 1.04 0 1.808.496.783.48 1.2 1.392.432.896.432 2.144 0 1.232-.432 2.144a3.2 3.2 0 0 1-1.2 1.392q-.768.495-1.808.496-.897 0-1.6-.4a2.47 2.47 0 0 1-1.04-1.104v4.24zm3.664-3.776q1.087 0 1.744-.768.656-.784.656-2.224 0-1.455-.656-2.224-.657-.768-1.744-.768-1.089 0-1.744.768-.657.768-.656 2.224 0 1.44.656 2.224.655.768 1.744.768m8.624 1.04q-1.041 0-1.824-.496-.768-.496-1.2-1.392-.416-.912-.416-2.144 0-1.248.416-2.144.432-.912 1.2-1.392.783-.495 1.824-.496.912 0 1.6.4.704.4 1.04 1.104V18.72h1.296V30h-1.264v-1.424q-.336.736-1.04 1.152-.705.416-1.632.416m.272-1.04q1.087 0 1.744-.768.656-.784.656-2.224 0-1.455-.656-2.224-.657-.768-1.744-.768-1.104 0-1.76.768-.64.768-.64 2.224 0 1.44.64 2.224.656.768 1.76.768m8.544 1.04a3.3 3.3 0 0 1-1.44-.304 2.6 2.6 0 0 1-.992-.864 2.1 2.1 0 0 1-.368-1.216q0-.848.432-1.344.447-.495 1.456-.704 1.023-.224 2.784-.224h.512v-.496q0-.992-.416-1.424-.4-.448-1.296-.448-.705 0-1.36.208a5.1 5.1 0 0 0-1.344.64l-.448-.944q.608-.432 1.472-.688a6 6 0 0 1 1.68-.256q1.504 0 2.224.736.736.735.736 2.288V30h-1.216v-1.344a2.4 2.4 0 0 1-.944 1.088q-.624.4-1.472.4m.208-.976q.96 0 1.568-.656.608-.672.608-1.696v-.48h-.496q-1.296 0-2.048.128-.737.112-1.04.416-.288.288-.288.8 0 .656.448 1.072.463.416 1.248.416m8.948.976q-1.375 0-2.064-.72-.688-.736-.688-2.112v-4.08h-1.52v-1.008h1.52V19.84h1.296v2.384h2.464v1.008h-2.464v3.952q0 .912.384 1.392.384.465 1.248.464.256 0 .512-.064t.464-.128l.224.992a2.6 2.6 0 0 1-.608.208 3.3 3.3 0 0 1-.768.096m5.9 0q-1.84 0-2.912-1.072-1.072-1.088-1.072-2.944 0-1.2.48-2.112.48-.928 1.312-1.424.848-.512 1.952-.512 1.584 0 2.48 1.024.896 1.008.896 2.784v.496h-5.856q.063 1.328.768 2.032.704.688 1.952.688.703 0 1.344-.208a3.8 3.8 0 0 0 1.216-.72l.448.912q-.528.495-1.344.784a5.2 5.2 0 0 1-1.664.272m-.208-7.104q-1.105 0-1.744.688-.64.688-.752 1.808h4.72q-.048-1.185-.624-1.84-.56-.656-1.6-.656m7.843 7.104a5.7 5.7 0 0 1-1.728-.256q-.816-.255-1.344-.72l.416-.912q.576.465 1.264.688.704.208 1.424.208.912 0 1.376-.336t.464-.912q0-.448-.304-.704-.303-.272-.96-.416l-1.456-.32q-1.983-.431-1.984-2.048 0-1.056.832-1.696.849-.64 2.208-.64a4.5 4.5 0 0 1 1.52.256 3 3 0 0 1 1.216.72l-.432.912a3.1 3.1 0 0 0-1.088-.656q-.607-.24-1.216-.24-.895 0-1.36.352a1.11 1.11 0 0 0-.464.928q0 .896 1.184 1.152l1.456.304q1.024.225 1.552.72.528.48.528 1.312 0 1.072-.848 1.696-.847.608-2.256.608"/></svg>