<svg width="56" height="45" viewBox="0 0 56 45" fill="none" xmlns="http://www.w3.org/2000/svg">
<path d="M1.47729 43.4643H47.1455L52.7666 32.3246M47.503 31.8393L53.835 31.6614C53.9085 31.6614 53.9682 31.728 53.9682 31.8102V38.9872M13.3709 43.4643H9.52331C9.34825 43.4643 9.2049 43.3055 9.2049 43.1085V26.2516C9.2049 26.056 9.34698 25.8958 9.52331 25.8958H13.3709C13.546 25.8958 13.6893 26.0546 13.6893 26.2516V43.1099C13.6893 43.3055 13.5472 43.4643 13.3709 43.4643ZM22.7394 43.4643H18.8918C18.7167 43.4643 18.5733 43.3055 18.5733 43.1085V2.03054C18.5733 1.83496 18.7154 1.6748 18.8918 1.6748H22.7394C22.9144 1.6748 23.0578 1.83354 23.0578 2.03054V43.1099C23.0565 43.3055 22.9144 43.4643 22.7394 43.4643ZM31.8731 43.538H28.0255C27.8505 43.538 27.7071 43.3792 27.7071 43.1822V15.8219C27.7071 15.6264 27.8492 15.4662 28.0255 15.4662H31.8731C32.0482 15.4662 32.1915 15.6249 32.1915 15.8219V43.1822C32.1903 43.3792 32.0482 43.538 31.8731 43.538ZM40.7722 43.4643H36.9246C36.7495 43.4643 36.6062 43.3055 36.6062 43.1085V6.8138C36.6062 6.61822 36.7483 6.45807 36.9246 6.45807H40.7722C40.9472 6.45807 41.0906 6.6168 41.0906 6.8138V43.1085C41.0906 43.3055 40.9485 43.4643 40.7722 43.4643Z" stroke="#FFCC29" stroke-width="2.91545" stroke-miterlimit="10" stroke-linecap="round"/>
</svg>
