<svg width="20" height="18" viewBox="0 0 20 18" fill="none" xmlns="http://www.w3.org/2000/svg">
<path d="M17.9297 4.96143C17.9297 5.15674 17.9297 5.31299 17.9297 5.5083C17.9297 10.938 13.8281 17.1489 6.28906 17.1489C3.94531 17.1489 1.79688 16.4849 0 15.313C0.3125 15.3521 0.625 15.3911 0.976562 15.3911C2.89062 15.3911 4.64844 14.7271 6.05469 13.6333C4.25781 13.5942 2.73438 12.4224 2.22656 10.7817C2.5 10.8208 2.73438 10.8599 3.00781 10.8599C3.35938 10.8599 3.75 10.7817 4.0625 10.7036C2.1875 10.313 0.78125 8.67236 0.78125 6.68018V6.64111C1.32812 6.95361 1.99219 7.10986 2.65625 7.14893C1.52344 6.40674 0.820312 5.15674 0.820312 3.75049C0.820312 2.96924 1.01562 2.26611 1.36719 1.68018C3.39844 4.14111 6.44531 5.78174 9.84375 5.97705C9.76562 5.66455 9.72656 5.35205 9.72656 5.03955C9.72656 2.77393 11.5625 0.937988 13.8281 0.937988C15 0.937988 16.0547 1.40674 16.8359 2.22705C17.7344 2.03174 18.6328 1.68018 19.4141 1.21143C19.1016 2.18799 18.4766 2.96924 17.6172 3.47705C18.4375 3.39893 19.2578 3.16455 19.9609 2.85205C19.4141 3.67236 18.7109 4.37549 17.9297 4.96143Z" fill="#C10023"/>
</svg>
