<svg xmlns="http://www.w3.org/2000/svg" width="40" height="41" fill="none"><rect width="40" height="40" y=".524" fill="#FFCC29" rx="5"/><path fill="#C10023" d="M27.93 16.961v.547c0 5.43-4.102 11.64-11.64 11.64-2.345 0-4.493-.663-6.29-1.835.313.04.625.078.977.078a8.25 8.25 0 0 0 5.078-1.758c-1.797-.039-3.32-1.21-3.828-2.851.273.039.507.078.78.078.352 0 .743-.078 1.056-.156a4.11 4.11 0 0 1-3.282-4.024v-.039c.547.313 1.211.469 1.875.508a4.04 4.04 0 0 1-1.836-3.399c0-.78.196-1.484.547-2.07a11.9 11.9 0 0 0 8.477 4.297 3.9 3.9 0 0 1-.117-.937 4.1 4.1 0 0 1 4.101-4.102c1.172 0 2.227.469 3.008 1.29a8.7 8.7 0 0 0 2.578-1.017 4 4 0 0 1-1.797 2.266 7.7 7.7 0 0 0 2.344-.625c-.547.82-1.25 1.523-2.031 2.11"/></svg>