<svg xmlns="http://www.w3.org/2000/svg" width="23" height="25" fill="none"><path fill="#FFCC29" d="M19.958 15.408h2.521v-2.094H15.19c-.132 2.172-1.956 3.896-4.186 3.896s-4.054-1.724-4.187-3.896H0v2.094h2.081q.17.645.433 1.267.297.701.708 1.335L1.4 19.813l2.869 2.839 1.824-1.806a9.227 9.227 0 0 0 2.94 1.196v2.512h4.063v-2.532a9.4 9.4 0 0 0 1.516-.485 9 9 0 0 0 1.422-.746l1.792 1.774 2.872-2.841-1.822-1.803a9 9 0 0 0 1.082-2.513M18.874 4.205v4.228c0 .287-.237.52-.529.52h-.375a.525.525 0 0 1-.529-.52V3.106a11.3 11.3 0 0 0-3.61-1.543v7.335c0 .287-.238.52-.53.52H9.167a.525.525 0 0 1-.53-.52V1.563c-1.29.304-2.507.84-3.593 1.543v5.327c0 .287-.237.52-.53.52H4.14a.525.525 0 0 1-.53-.52V4.205C1.396 6.219 0 9.093 0 12.292h22.48c.005-3.199-1.384-6.073-3.606-8.087"/><path fill="#FFCC29" d="M12.772 8.023c0 .242-.177.437-.4.437h-2.265c-.217 0-.4-.195-.4-.437v-7.3c0-.241.177-.437.4-.437h2.265c.217 0 .4.196.4.438z"/></svg>